<svg width="14" height="21" viewBox="0 0 14 21" fill="none" xmlns="http://www.w3.org/2000/svg">
<path d="M13.34 13.9907C13.34 10.8627 10.695 9.94272 8.303 9.32172V6.10172C9.338 6.35472 10.35 6.83772 11.155 7.59672L12.972 5.20472C11.73 4.07772 10.166 3.34172 8.303 3.15772V0.972719H6.118V3.11172C3.036 3.41072 1.173 5.38872 1.173 7.73472C1.173 10.8397 3.749 11.7597 6.118 12.3347V15.9457C4.577 15.6697 3.335 14.8877 2.461 13.9907L0.69 16.4747C1.955 17.7397 3.703 18.6597 6.118 18.8667V20.9367H8.303V18.8437C11.684 18.4987 13.34 16.5207 13.34 13.9907ZM4.531 7.45872C4.531 6.63072 5.152 6.03272 6.325 5.91772V8.83872C5.267 8.56272 4.531 8.17172 4.531 7.45872ZM8.096 16.0147V12.7947C9.2 13.1167 10.005 13.5077 10.005 14.3587C10.005 15.1177 9.407 15.8307 8.096 16.0147Z" fill="#DB323F"/>
</svg>
