<svg width="17" height="20" viewBox="0 0 17 20" fill="none" xmlns="http://www.w3.org/2000/svg">
<path d="M9.33453 7.5C9.33453 8.18827 8.77101 8.75 8.07119 8.75C7.37138 8.75 6.80786 8.18827 6.80786 7.5C6.80786 6.81173 7.37138 6.25 8.07119 6.25C8.77101 6.25 9.33453 6.81173 9.33453 7.5Z" stroke="#ADADAD" stroke-width="0.5"/>
<path d="M8.07111 1.00146e-08C5.94443 -0.00010539 3.90365 0.831759 2.39232 2.31479C0.880993 3.79782 0.0212668 5.81216 0 7.92C0 13.4 7.11267 19.5 7.41533 19.76C7.59808 19.9149 7.83064 20.0001 8.07111 20.0001C8.31158 20.0001 8.54415 19.9149 8.72689 19.76C9.08 19.5 16.1422 13.4 16.1422 7.92C16.121 5.81216 15.2612 3.79782 13.7499 2.31479C12.2386 0.831759 10.1978 -0.00010539 8.07111 1.00146e-08ZM8.07111 11C7.37272 11 6.69002 10.7947 6.10933 10.4101C5.52864 10.0256 5.07605 9.47893 4.80879 8.83939C4.54153 8.19985 4.4716 7.49612 4.60785 6.81718C4.7441 6.13825 5.0804 5.51461 5.57424 5.02513C6.06807 4.53564 6.69726 4.2023 7.38223 4.06725C8.06719 3.9322 8.77718 4.00151 9.42241 4.26642C10.0676 4.53133 10.6191 4.97993 11.0071 5.5555C11.3951 6.13108 11.6022 6.80777 11.6022 7.5C11.6022 8.42826 11.2302 9.3185 10.568 9.97487C9.90577 10.6313 9.00762 11 8.07111 11Z" fill="#ADADAD"/>
</svg>
