<svg width="16" height="17" viewBox="0 0 16 17" fill="none" xmlns="http://www.w3.org/2000/svg">
<path d="M0 8.24003V8.2174C0.200837 5.59231 1.13808 3.6235 2.76709 2.37884C4.37378 1.11156 6.11437 0.500548 8.01116 0.500548C9.99721 0.477918 11.8494 1.15682 13.5007 2.51462C15.1743 3.8498 16 5.84124 16 8.42107V8.57948C16 11.1819 15.1743 13.1281 13.5007 14.4633C11.8271 15.8211 9.9749 16.5 7.98884 16.5H7.89958C5.95816 16.4774 4.17294 15.7985 2.52162 14.4407C0.870293 13.1055 0.0223152 11.0462 0 8.24003ZM7.52022 4.68711V1.11156H6.98466C6.87308 1.24734 6.78382 1.40575 6.69456 1.54153C6.6053 1.67731 6.51604 1.81309 6.42678 1.9715C6.33752 2.10728 6.22594 2.28832 6.159 2.4241C6.06973 2.55988 6.00279 2.69566 5.93584 2.85407C5.80195 3.08037 5.69038 3.30667 5.60112 3.51035C5.48954 3.71402 5.40028 3.91769 5.33333 4.09873C5.46722 4.18925 5.62343 4.3024 5.80195 4.37029C6.00279 4.43818 6.20363 4.50607 6.40446 4.55133C6.62761 4.59659 6.82845 4.61922 7.00697 4.64185C7.20781 4.66448 7.38633 4.68711 7.52022 4.68711ZM8.45746 1.11156V4.66448C8.56904 4.66448 8.70293 4.68711 8.83682 4.66448C8.97071 4.66448 9.12692 4.64185 9.26081 4.61922C9.50628 4.57396 9.79637 4.50607 10.0195 4.43818C10.265 4.34766 10.4881 4.23451 10.6444 4.09873C10.3766 3.44246 10.0865 2.92196 9.79637 2.4241C9.50628 1.92624 9.17155 1.49627 8.8145 1.13419V1.11156H8.45746ZM6.04742 1.31523V1.2926C5.89121 1.36049 5.73501 1.47364 5.55649 1.54153C5.40028 1.60942 5.19944 1.69994 5.04324 1.79046C4.73082 1.94887 4.41841 2.12991 4.106 2.33358C3.8159 2.53725 3.5258 2.76355 3.28033 2.98985C3.3696 3.08037 3.48117 3.17089 3.57043 3.23879C3.65969 3.30668 3.77127 3.3972 3.88285 3.48772C3.97211 3.53298 4.08368 3.60087 4.19526 3.69139C4.30683 3.75928 4.44073 3.8498 4.57462 3.94032C4.75314 3.53298 4.93166 3.103 5.15481 2.71829C5.37796 2.31095 5.62343 1.92624 5.8689 1.58679C5.89121 1.54153 5.91353 1.49627 5.95816 1.45101C5.98047 1.42838 6.00279 1.36049 6.04742 1.31523ZM12.8759 2.98985V2.96722C12.318 2.53725 11.8271 2.17517 11.3361 1.94887C10.8452 1.72257 10.3543 1.49627 9.90795 1.31523C10.265 1.67731 10.5774 2.12991 10.7782 2.55988C11.0014 3.01248 11.2245 3.48772 11.4031 3.94032C11.4923 3.89506 11.6039 3.8498 11.7378 3.75928C11.8494 3.69139 12.0056 3.6235 12.1395 3.55561C12.2734 3.46509 12.3849 3.37457 12.5188 3.28404C12.6527 3.17089 12.7866 3.08037 12.8759 2.98985ZM12.4965 8.03636H15.0628C15.0628 7.19905 14.8842 6.40699 14.5495 5.59231C14.2371 4.80026 13.7908 4.14399 13.2329 3.57824V3.55561C13.1213 3.73665 12.9651 3.89506 12.8089 4.00821C12.6304 4.12136 12.4742 4.21188 12.2957 4.3024C12.1841 4.37029 12.0725 4.46081 11.9609 4.50607C11.8494 4.57396 11.6932 4.61922 11.5816 4.68711C11.6709 4.86815 11.7601 5.07182 11.8494 5.25286C11.9163 5.45653 12.0279 5.68283 12.0725 5.8865C12.2064 6.24858 12.2957 6.63329 12.3849 7.018C12.4519 7.35746 12.4965 7.71954 12.4965 8.03636ZM4.41841 4.68711V4.66448C4.23989 4.57396 4.03905 4.50607 3.88285 4.41555C3.72664 4.3024 3.57043 4.18925 3.43654 4.09873C3.30265 4.03084 3.16876 3.94032 3.05718 3.8498C2.94561 3.75928 2.85635 3.66876 2.76709 3.57824C2.18689 4.14399 1.7629 4.77763 1.49512 5.52442C1.20502 6.27121 1.00418 7.10853 0.914923 8.01373H3.65969C3.65969 7.38009 3.74895 6.76907 3.90516 6.15806C4.03905 5.52442 4.23989 5.04919 4.41841 4.68711ZM7.52022 8.01373V5.41127C7.3417 5.4339 7.11855 5.4339 6.91771 5.41127C6.69456 5.38864 6.47141 5.32075 6.27057 5.25286C6.09205 5.2076 5.8689 5.16234 5.69038 5.09445C5.48954 5.04919 5.2887 4.95867 5.1325 4.86815C4.99861 5.09445 4.88703 5.36601 4.79777 5.6602C4.68619 5.93176 4.61925 6.22595 4.5523 6.49751C4.50767 6.76907 4.48536 7.06327 4.46304 7.3122C4.44073 7.56113 4.41841 7.81006 4.41841 8.01373H7.52022ZM8.45746 5.45653V8.01373H11.7601C11.7601 7.87795 11.7601 7.71954 11.7378 7.5385C11.6932 7.38009 11.6709 7.17642 11.6485 6.99538C11.5816 6.72381 11.5146 6.42962 11.4254 6.15806C11.3361 5.90913 11.2469 5.6602 11.1353 5.45653C11.0907 5.34338 11.046 5.2076 11.0014 5.11708C10.9344 5.00393 10.8675 4.93604 10.8229 4.86815C10.5774 5.04919 10.2427 5.16234 9.841 5.25286C9.46165 5.34338 9.01534 5.4339 8.61367 5.45653H8.45746ZM3.65969 8.76052H0.914923C0.914923 9.14523 0.981869 9.5752 1.09344 10.0957C1.20502 10.6388 1.42817 11.1367 1.67364 11.6798C1.78522 11.9514 1.91911 12.2229 2.053 12.4945C2.2092 12.7434 2.38773 13.015 2.56625 13.2639C2.70014 13.1734 2.83403 13.1055 2.94561 13.0376C3.0795 12.9697 3.2357 12.8792 3.3696 12.8113C3.5258 12.7434 3.68201 12.6755 3.86053 12.585C4.01674 12.5171 4.21757 12.4266 4.41841 12.3361C4.23989 11.7703 4.03905 11.2272 3.90516 10.6162C3.74895 10.0278 3.65969 9.43942 3.65969 8.78315V8.76052ZM7.52022 11.4082V8.76052H4.41841C4.41841 8.94156 4.44073 9.21312 4.48536 9.48468C4.50767 9.75624 4.57462 10.0504 4.61925 10.3446C4.70851 10.6614 4.77545 10.9783 4.86471 11.2498C4.95397 11.5214 5.04324 11.7477 5.1325 11.9514C5.53417 11.7929 5.93584 11.6798 6.20363 11.6119C6.49372 11.5214 6.76151 11.4535 7.02929 11.4309H7.27476C7.36402 11.4082 7.45328 11.4082 7.52022 11.4082ZM8.45746 8.76052V11.3856C8.61367 11.4082 8.79219 11.4309 8.97071 11.4535C9.17155 11.4761 9.41702 11.5214 9.61785 11.5666L9.95258 11.6345C10.0642 11.6798 10.198 11.7024 10.3096 11.7251C10.4435 11.7703 10.5774 11.7929 10.7113 11.8382C10.8229 11.8835 10.9344 11.9061 11.0237 11.9514C11.3138 11.2046 11.4923 10.5936 11.6039 10.0731C11.7155 9.5752 11.7601 9.14523 11.7601 8.78315V8.76052H8.45746ZM15.0628 8.78315V8.76052H12.4965V8.8963C12.4742 9.32627 12.4073 9.82413 12.318 10.3446C12.2287 10.8425 12.0279 11.4309 11.7601 12.155C12.1172 12.3361 12.4519 12.5171 12.7197 12.6981C12.9874 12.8792 13.2329 13.0829 13.4114 13.2639C13.7908 12.8792 14.1255 12.3587 14.4156 11.6798C14.7057 11.0235 14.9066 10.3446 15.0181 9.62046C15.0404 9.48468 15.0404 9.3489 15.0628 9.21312V8.78315ZM7.52022 15.6627V12.1324C6.96234 12.2229 6.49372 12.3361 6.13668 12.4266C5.77964 12.5171 5.51185 12.6076 5.33333 12.6981C5.46722 13.0376 5.60112 13.3318 5.73501 13.6034C5.8689 13.8523 6.0251 14.1238 6.159 14.3501C6.20363 14.4407 6.29289 14.5312 6.35983 14.6443C6.42678 14.7349 6.47141 14.848 6.53835 14.9385C6.6053 15.0517 6.67225 15.1875 6.73919 15.3232C6.82845 15.4364 6.8954 15.5722 6.98466 15.6627H7.52022ZM8.45746 15.6627H8.97071C9.17155 15.5043 9.37239 15.278 9.52859 15.029C9.70711 14.7801 9.90795 14.4859 10.0418 14.237C10.198 13.9428 10.3543 13.6712 10.4881 13.3997C10.622 13.1281 10.7336 12.8792 10.8229 12.6981C10.5774 12.6076 10.2427 12.5171 9.90795 12.4266C9.57322 12.3361 9.1046 12.2455 8.45746 12.155V15.6627ZM12.8759 13.807V13.7844C12.8312 13.7165 12.742 13.626 12.675 13.5581C12.6081 13.4902 12.4965 13.3997 12.3849 13.3318C12.2957 13.2639 12.1841 13.196 12.0502 13.1281C11.9163 13.0602 11.7378 12.9697 11.5816 12.8792C11.4923 13.0602 11.3361 13.3771 11.113 13.807C10.9121 14.237 10.5551 14.7575 10.1088 15.3232C10.6667 15.2327 11.1576 15.029 11.6039 14.7575C12.0948 14.5086 12.5188 14.1691 12.8759 13.807ZM4.57462 13.0829V13.0602C4.41841 13.1508 4.17294 13.2639 3.92748 13.3771C3.65969 13.4902 3.3696 13.626 3.10181 13.807C3.25802 13.9428 3.41423 14.0786 3.54812 14.1691C3.68201 14.2823 3.83821 14.3728 3.97211 14.4633C4.21757 14.6217 4.50767 14.7801 4.79777 14.9159C5.08787 15.0517 5.44491 15.1875 5.89121 15.3232C5.73501 15.1422 5.62343 14.9159 5.51186 14.7349C5.40028 14.5538 5.26639 14.3728 5.15481 14.1917C5.04324 14.0107 4.95397 13.807 4.86471 13.626C4.75314 13.4449 4.66388 13.2639 4.57462 13.0829Z" fill="#DB323F"/>
</svg>
