<svg xmlns="http://www.w3.org/2000/svg" width="31" height="36" viewBox="0 0 31 36">
<path fill-rule="evenodd" clip-rule="evenodd" d="M28.9157 26.6993C27.9636 25.4817 26.4177 23.7176 25.0942 23.5504C24.289 23.4488 23.3636 24.1264 22.4516 24.7657C22.2737 24.856 20.899 25.6873 20.7322 25.737C19.8514 25.9922 17.9718 26.0668 16.8351 25.0141C15.7407 23.9977 14.0102 22.116 12.6133 20.3925C11.2786 18.6171 9.87952 16.4825 9.16327 15.1723C8.41588 13.8148 8.95418 12.019 9.41685 11.2284C9.50137 11.0861 10.5246 10.0176 10.7537 9.76916L10.7871 9.80982C11.6345 9.08699 12.5221 8.35286 12.6222 7.55775C12.7868 6.23406 11.4544 4.30726 10.5023 3.08748C9.55031 1.86544 8.07555 -0.27369 6.06695 0.0289963C5.31066 0.141939 4.65892 0.410742 4.01608 0.797006L3.99829 0.776676C3.96224 0.803932 3.92665 0.831795 3.89152 0.860253L3.83591 0.889619L3.84258 0.898654C3.47334 1.18779 2.41899 1.98742 2.29887 2.09584C0.99539 3.27271 -0.966502 6.04432 0.550516 11.0296C1.67605 14.7341 4.07614 19.0847 7.34596 23.4849L7.32817 23.5007C7.48832 23.713 7.65292 23.9051 7.81975 24.1106C7.97546 24.3207 8.12894 24.5285 8.28909 24.7363L8.31134 24.7205C11.7814 28.9649 15.4204 32.3577 18.7414 34.359C23.2124 37.0516 26.391 35.8386 27.8591 34.874C27.997 34.7814 29.0469 33.9524 29.4028 33.6791L29.4117 33.6881C29.425 33.6746 29.4339 33.6565 29.4517 33.643C29.4838 33.6184 29.5157 33.5935 29.5474 33.5684L29.534 33.5503C30.0723 33.0218 30.5039 32.4571 30.8019 31.7455C31.5827 29.8729 29.8677 27.9213 28.9157 26.6993Z" fill="white"/>
</svg>
