<svg width="16" height="17" viewBox="0 0 16 17" fill="none" xmlns="http://www.w3.org/2000/svg">
<path d="M14.1545 16.5H14.0499C1.96206 15.8046 0.245771 5.60154 0.00585927 2.48769C-0.0134719 2.24559 0.0151412 2.00205 0.090059 1.77102C0.164977 1.54 0.284727 1.32603 0.442448 1.14139C0.600169 0.956739 0.792761 0.805039 1.00919 0.694978C1.22562 0.584918 1.46163 0.51866 1.7037 0.500001H5.09322C5.33962 0.499762 5.58042 0.573545 5.78443 0.711792C5.98843 0.85004 6.14624 1.04638 6.23741 1.27539L7.17245 3.57692C7.26248 3.80064 7.28482 4.0459 7.2367 4.28221C7.18858 4.51853 7.07212 4.73549 6.90178 4.90615L5.5915 6.22923C5.79617 7.39277 6.35317 8.46533 7.18715 9.30182C8.02113 10.1383 9.09183 10.6983 10.2544 10.9062L11.5893 9.58308C11.7625 9.41456 11.9814 9.30077 12.2188 9.2559C12.4562 9.21103 12.7015 9.23707 12.9242 9.33077L15.2433 10.26C15.4688 10.3541 15.6612 10.5132 15.7959 10.717C15.9307 10.9209 16.0017 11.1602 16 11.4046V14.6538C16 15.1435 15.8055 15.6131 15.4594 15.9593C15.1133 16.3055 14.6439 16.5 14.1545 16.5ZM1.85133 1.73077C1.68818 1.73077 1.53172 1.7956 1.41635 1.91101C1.30099 2.02642 1.23618 2.18294 1.23618 2.34615V2.39539C1.51915 6.03846 3.33386 14.6538 14.1176 15.2692C14.1984 15.2742 14.2794 15.2632 14.356 15.2368C14.4325 15.2104 14.5031 15.1692 14.5637 15.1154C14.6243 15.0617 14.6736 14.9965 14.709 14.9236C14.7443 14.8508 14.7649 14.7716 14.7697 14.6908V11.4046L12.4505 10.4754L10.685 12.2292L10.3897 12.1923C5.03785 11.5215 4.31197 6.16769 4.31197 6.11231L4.27506 5.81692L6.02211 4.05077L5.09937 1.73077H1.85133Z" fill="#DB323F"/>
</svg>
