<svg xmlns="http://www.w3.org/2000/svg" width="31.621" height="31.621" viewBox="0 0 31.621 31.621">
<path d="M11.2186 13.9997C10.6086 13.9997 9.75174 13.7791 8.46861 13.0622C6.9083 12.1872 5.70142 11.3794 4.14955 9.83158C2.6533 8.33627 1.92517 7.36815 0.906111 5.51377C-0.245139 3.42002 -0.0488891 2.32252 0.170486 1.85346C0.431736 1.29283 0.817361 0.957523 1.3158 0.62471C1.59891 0.439221 1.89851 0.280216 2.2108 0.14971C2.24205 0.136273 2.27111 0.12346 2.29705 0.111898C2.45174 0.0422101 2.68611 -0.0631024 2.98299 0.0493976C3.18111 0.123773 3.35799 0.27596 3.63486 0.549398C4.20267 1.1094 4.97861 2.35658 5.26486 2.96908C5.45705 3.3819 5.58424 3.6544 5.58455 3.96002C5.58455 4.31783 5.40455 4.59377 5.18611 4.89158C5.14517 4.94752 5.10455 5.00096 5.06517 5.05283C4.82736 5.36533 4.77517 5.45565 4.80955 5.6169C4.87924 5.94096 5.39892 6.90565 6.25299 7.75783C7.10705 8.61002 8.04392 9.0969 8.36924 9.16627C8.53736 9.20221 8.62955 9.14783 8.95205 8.90158C8.9983 8.86627 9.0458 8.82971 9.09548 8.79315C9.42861 8.54533 9.69174 8.37002 10.0411 8.37002H10.043C10.347 8.37002 10.6074 8.5019 11.0386 8.7194C11.6011 9.00315 12.8858 9.76908 13.4492 10.3375C13.7233 10.6138 13.8761 10.79 13.9508 10.9878C14.0633 11.2856 13.9574 11.5191 13.8883 11.6753C13.8767 11.7013 13.8639 11.7297 13.8505 11.7613C13.7189 12.073 13.559 12.372 13.3727 12.6544C13.0405 13.1513 12.7039 13.536 12.142 13.7975C11.8535 13.934 11.5378 14.0031 11.2186 13.9997Z" fill="white"/>
</svg>
