<svg width="17" height="20" viewBox="0 0 17 20" fill="none" xmlns="http://www.w3.org/2000/svg">
<path d="M10.5 8C10.5 9.38071 9.38071 10.5 8 10.5C6.61929 10.5 5.5 9.38071 5.5 8C5.5 6.61929 6.61929 5.5 8 5.5C9.38071 5.5 10.5 6.61929 10.5 8Z" stroke="white"/>
<path d="M8.07109 0.5H8.07114C10.0675 0.499901 11.9823 1.28082 13.3997 2.67167C14.8163 4.06177 15.6216 5.94873 15.6422 7.92248C15.6411 10.4769 13.9779 13.253 12.1779 15.4835C11.2884 16.5857 10.3868 17.529 9.68542 18.213C9.33502 18.5547 9.03561 18.8306 8.81408 19.0282C8.70327 19.1271 8.61249 19.2058 8.54502 19.263C8.51124 19.2916 8.48394 19.3143 8.46331 19.3312L8.43879 19.3509C8.43256 19.3558 8.43006 19.3576 8.43037 19.3574L8.41663 19.3675L8.40355 19.3786C8.31151 19.4566 8.19364 19.5001 8.07111 19.5001C7.94894 19.5001 7.8314 19.4569 7.73948 19.3793C7.73947 19.3793 7.73946 19.3793 7.73946 19.3793C7.73943 19.3793 7.7394 19.3792 7.73937 19.3792C7.58401 19.2458 5.75752 17.6768 3.97337 15.4713C2.1698 13.2417 0.501096 10.4714 0.500001 7.92251C0.520587 5.94875 1.32589 4.06178 2.74252 2.67167C4.1599 1.28082 6.07474 0.499901 8.07109 0.5Z" stroke="white"/>
</svg>
