<svg width="593" height="65" viewBox="0 0 593 65" fill="none" xmlns="http://www.w3.org/2000/svg">
<path d="M19.2682 29.6847C18.677 28.9764 17.952 28.4303 17.0932 28.0506C16.2345 27.6709 15.2419 27.4789 14.1113 27.4789C12.9807 27.4789 11.9363 27.6965 10.9783 28.1274C10.016 28.5583 9.18313 29.1599 8.47972 29.9321C7.772 30.7043 7.22394 31.6259 6.82693 32.6882C6.42991 33.7549 6.23141 34.9068 6.23141 36.1483C6.23141 37.4155 6.42991 38.576 6.82693 39.6255C7.22394 40.6793 7.76768 41.5923 8.46246 42.3646C9.15292 43.1368 9.96852 43.7384 10.905 44.1693C11.8414 44.6002 12.8469 44.8178 13.9257 44.8178C15.1556 44.8178 16.2474 44.5661 17.1968 44.0584C18.1462 43.5506 18.9273 42.8424 19.5443 41.9294L24.5459 45.6156C23.3937 47.2113 21.9308 48.3931 20.1614 49.1525C18.3921 49.9119 16.5711 50.2917 14.6982 50.2917C12.5707 50.2917 10.6072 49.9631 8.812 49.3018C7.01681 48.6448 5.46759 47.6976 4.16003 46.4689C2.85247 45.2402 1.83404 43.7512 1.10042 42.0019C0.366807 40.2527 0 38.3029 0 36.1483C0 33.9938 0.366807 32.044 1.09611 30.2905C1.82541 28.5412 2.84815 27.0523 4.15571 25.8235C5.46327 24.5948 7.01249 23.6519 8.80769 22.9906C10.6029 22.3335 12.5621 22.0008 14.6939 22.0008C15.462 22.0008 16.2647 22.0733 17.0975 22.2098C17.9304 22.3506 18.7503 22.5725 19.5573 22.8754C20.3643 23.1783 21.141 23.5836 21.8833 24.0913C22.6255 24.599 23.2944 25.2177 23.8813 25.9558L19.2682 29.6847Z" fill="#F8F8F8"/>
<path d="M36.767 22.6858H41.7297L53.5754 49.6071H46.8045L44.457 43.9028H33.8843L31.6144 49.6071H24.9989L36.767 22.6858ZM39.0757 30.519L35.7658 38.8855H42.4201L39.0757 30.519Z" fill="#F8F8F8"/>
<path d="M56.307 22.6858H66.8451C68.2304 22.6858 69.5422 22.818 70.7851 23.0868C72.0279 23.3513 73.1197 23.795 74.0561 24.4179C74.9926 25.0408 75.7348 25.8771 76.2872 26.9266C76.8396 27.9804 77.1157 29.2902 77.1157 30.8603C77.1157 32.7631 76.6152 34.3759 75.614 35.707C74.6128 37.0381 73.1542 37.8829 71.2296 38.237L78.1514 49.6071H70.9577L65.2657 38.8471H62.3054V49.6071H56.307V22.6858ZM62.3054 33.8255H65.844C66.3834 33.8255 66.953 33.8084 67.5572 33.77C68.1613 33.7316 68.7051 33.6164 69.1927 33.4287C69.6803 33.2367 70.0817 32.9423 70.4053 32.537C70.7247 32.1317 70.8843 31.56 70.8843 30.8262C70.8843 30.1435 70.7419 29.5974 70.4614 29.1921C70.1809 28.7868 69.8184 28.4753 69.3826 28.262C68.9467 28.0487 68.4461 27.8994 67.8808 27.8226C67.3155 27.7458 66.7675 27.7074 66.228 27.7074H62.3054V33.8255Z" fill="#F8F8F8"/>
<path d="M79.7655 36.1476C79.7655 33.993 80.1323 32.0432 80.8616 30.2897C81.5909 28.5405 82.6137 27.0515 83.9212 25.8227C85.2288 24.594 86.778 23.6511 88.5732 22.9898C90.3684 22.3328 92.3276 22 94.4594 22C96.5869 22 98.5504 22.3285 100.346 22.9898C102.141 23.6511 103.69 24.594 104.998 25.8227C106.305 27.0515 107.324 28.5405 108.057 30.2897C108.786 32.039 109.153 33.993 109.153 36.1476C109.153 38.3021 108.786 40.2519 108.057 42.0012C107.328 43.7504 106.305 45.2394 104.998 46.4681C103.69 47.6969 102.136 48.6398 100.346 49.3011C98.5504 49.9581 96.5869 50.2909 94.4594 50.2909C92.3319 50.2909 90.3684 49.9624 88.5732 49.3011C86.778 48.644 85.2288 47.6969 83.9212 46.4681C82.6137 45.2394 81.5953 43.7504 80.8616 42.0012C80.1323 40.2519 79.7655 38.3021 79.7655 36.1476ZM85.9969 36.1476C85.9969 37.4147 86.1955 38.5752 86.5925 39.6247C86.9895 40.6786 87.5591 41.5916 88.3057 42.3638C89.0479 43.136 89.9412 43.7376 90.9769 44.1685C92.0169 44.5994 93.1734 44.817 94.4594 44.817C95.7411 44.817 96.9019 44.6037 97.9419 44.1685C98.9819 43.7376 99.8709 43.136 100.613 42.3638C101.355 41.5916 101.925 40.6786 102.326 39.6247C102.723 38.5752 102.922 37.4147 102.922 36.1476C102.922 34.906 102.723 33.7498 102.326 32.6875C101.929 31.6209 101.36 30.7036 100.613 29.9313C99.8709 29.1591 98.9776 28.5575 97.9419 28.1266C96.9019 27.6957 95.7411 27.4781 94.4594 27.4781C93.1777 27.4781 92.0169 27.6957 90.9769 28.1266C89.9369 28.5575 89.0479 29.1591 88.3057 29.9313C87.5634 30.7036 86.9895 31.6251 86.5925 32.6875C86.1955 33.7498 85.9969 34.906 85.9969 36.1476Z" fill="#F8F8F8"/>
<path d="M113.456 22.6858H119.454V44.1332H130.57V49.6071H113.456V22.6858Z" fill="#F8F8F8"/>
<path d="M145.26 22.6858H155.798C157.183 22.6858 158.495 22.818 159.738 23.0868C160.981 23.3513 162.073 23.795 163.009 24.4179C163.946 25.0408 164.688 25.8771 165.24 26.9266C165.793 27.9804 166.069 29.2902 166.069 30.8603C166.069 32.7631 165.568 34.3759 164.567 35.707C163.566 37.0381 162.107 37.8829 160.183 38.237L167.104 49.6071H159.911L154.219 38.8471H151.258V49.6071H145.26V22.6858ZM151.263 33.8255H154.801C155.341 33.8255 155.91 33.8084 156.514 33.77C157.119 33.7316 157.662 33.6164 158.15 33.4287C158.638 33.2367 159.039 32.9423 159.363 32.537C159.682 32.1317 159.842 31.56 159.842 30.8262C159.842 30.1435 159.699 29.5974 159.419 29.1921C159.138 28.7868 158.776 28.4753 158.34 28.262C157.904 28.0487 157.403 27.8994 156.838 27.8226C156.273 27.7458 155.725 27.7074 155.185 27.7074H151.263V33.8255Z" fill="#F8F8F8"/>
<path d="M168.723 36.1476C168.723 33.993 169.089 32.0432 169.819 30.2897C170.548 28.5405 171.571 27.0515 172.878 25.8227C174.186 24.594 175.735 23.6511 177.53 22.9898C179.325 22.3328 181.285 22 183.416 22C185.544 22 187.507 22.3285 189.303 22.9898C191.098 23.6511 192.647 24.594 193.955 25.8227C195.262 27.0515 196.281 28.5405 197.01 30.2897C197.739 32.039 198.106 33.993 198.106 36.1476C198.106 38.3021 197.739 40.2519 197.01 42.0012C196.281 43.7504 195.262 45.2394 193.955 46.4681C192.647 47.6969 191.094 48.6398 189.303 49.3011C187.507 49.9581 185.548 50.2909 183.416 50.2909C181.289 50.2909 179.325 49.9624 177.53 49.3011C175.735 48.644 174.186 47.6969 172.878 46.4681C171.571 45.2394 170.552 43.7504 169.819 42.0012C169.089 40.2519 168.723 38.3021 168.723 36.1476ZM174.954 36.1476C174.954 37.4147 175.153 38.5752 175.55 39.6247C175.947 40.6786 176.516 41.5916 177.263 42.3638C178.005 43.136 178.898 43.7376 179.934 44.1685C180.974 44.5994 182.13 44.817 183.416 44.817C184.698 44.817 185.859 44.6037 186.899 44.1685C187.939 43.7376 188.828 43.136 189.57 42.3638C190.312 41.5916 190.882 40.6786 191.283 39.6247C191.68 38.5752 191.879 37.4147 191.879 36.1476C191.879 34.906 191.68 33.7498 191.283 32.6875C190.886 31.6209 190.317 30.7036 189.57 29.9313C188.828 29.1591 187.935 28.5575 186.899 28.1266C185.859 27.6957 184.702 27.4781 183.416 27.4781C182.135 27.4781 180.974 27.6957 179.934 28.1266C178.894 28.5575 178.005 29.1591 177.263 29.9313C176.52 30.7036 175.947 31.6251 175.55 32.6875C175.153 33.7498 174.954 34.906 174.954 36.1476Z" fill="#F8F8F8"/>
<path d="M208.873 38.1218L198.641 22.6858H206.102L211.872 32.7631L217.987 22.6858H225.103L214.871 38.1218V49.6071H208.873V38.1218Z" fill="#F8F8F8"/>
<path d="M240.565 29.2658C240.078 28.6557 239.417 28.2077 238.584 27.9176C237.752 27.6275 236.962 27.4781 236.22 27.4781C235.784 27.4781 235.335 27.5293 234.873 27.6317C234.411 27.7341 233.976 27.892 233.566 28.1053C233.156 28.3229 232.823 28.6045 232.564 28.9586C232.31 29.3127 232.18 29.7436 232.18 30.2513C232.18 31.062 232.487 31.6849 233.104 32.1158C233.721 32.5467 234.493 32.9136 235.43 33.2165C236.366 33.5194 237.372 33.8266 238.451 34.1295C239.529 34.4325 240.535 34.8634 241.471 35.4223C242.408 35.9812 243.185 36.7278 243.797 37.6664C244.414 38.6051 244.721 39.8594 244.721 41.4295C244.721 42.927 244.44 44.2325 243.875 45.3461C243.31 46.4639 242.55 47.3854 241.588 48.1235C240.626 48.8574 239.512 49.4035 238.243 49.7576C236.975 50.1117 235.633 50.2909 234.226 50.2909C232.457 50.2909 230.817 50.0264 229.302 49.4931C227.787 48.9598 226.381 48.0979 225.073 46.9076L229.341 42.2699C229.958 43.0806 230.73 43.7077 231.667 44.1515C232.603 44.5952 233.57 44.817 234.571 44.817C235.059 44.817 235.551 44.7616 236.051 44.6464C236.552 44.5312 237.001 44.3605 237.398 44.1344C237.795 43.904 238.114 43.6139 238.36 43.2598C238.602 42.9057 238.727 42.4875 238.727 42.0054C238.727 41.1948 238.412 40.5548 237.786 40.0855C237.156 39.6162 236.371 39.2152 235.421 38.8866C234.472 38.5581 233.445 38.2296 232.344 37.8968C231.24 37.5683 230.217 37.1246 229.268 36.5657C228.318 36.0068 227.528 35.273 226.903 34.3599C226.273 33.4469 225.962 32.2438 225.962 30.7462C225.962 29.2999 226.251 28.0328 226.825 26.9448C227.403 25.8569 228.171 24.9439 229.134 24.2058C230.096 23.4719 231.205 22.9173 232.461 22.5504C233.717 22.1835 235.011 22 236.345 22C237.881 22 239.37 22.2176 240.807 22.6485C242.244 23.0794 243.538 23.8004 244.691 24.8159L240.565 29.2658Z" fill="#F8F8F8"/>
<path d="M249.412 22.6858H267.912V28.1596H255.41V33.177H267.217V38.6508H255.41V44.1247H268.602V49.5986H249.412V22.6858Z" fill="#F8F8F8"/>
<path d="M0.455304 4.46436L4.67829 3.88594L6.56607 0.279028C6.61763 0.180273 6.70246 0.100328 6.80724 0.0517347C7.07004 -0.0705335 7.38938 0.0313566 7.52078 0.279028L9.40856 3.88594L13.6315 4.46436C13.748 4.48004 13.8544 4.53177 13.9359 4.61014C14.0344 4.70559 14.0887 4.83399 14.0869 4.96714C14.085 5.10029 14.0271 5.22729 13.9259 5.32024L10.8706 8.12771L11.5924 12.092C11.6093 12.1842 11.5985 12.2791 11.5611 12.3658C11.5238 12.4525 11.4614 12.5276 11.3811 12.5826C11.3007 12.6376 11.2056 12.6703 11.1066 12.677C11.0075 12.6836 10.9085 12.664 10.8207 12.6203L7.04342 10.7486L3.26619 12.6203C3.16307 12.672 3.04331 12.6892 2.92855 12.6704C2.63915 12.6234 2.44455 12.3648 2.49444 12.092L3.21629 8.12771L0.160909 5.32024C0.0777464 5.24343 0.0228596 5.14311 0.00622749 5.03338C-0.0386801 4.75906 0.164236 4.50512 0.455304 4.46436Z" fill="#FEAC0C"/>
<path d="M22.5422 4.46436L26.7652 3.88594L28.653 0.279028C28.7045 0.180273 28.7894 0.100328 28.8942 0.0517347C29.1569 -0.0705335 29.4763 0.0313566 29.6077 0.279028L31.4955 3.88594L35.7185 4.46436C35.8349 4.48004 35.9413 4.53177 36.0228 4.61014C36.1214 4.70559 36.1757 4.83399 36.1738 4.96714C36.1719 5.10029 36.114 5.22729 36.0129 5.32024L32.9575 8.12771L33.6793 12.092C33.6962 12.1842 33.6854 12.2791 33.6481 12.3658C33.6107 12.4525 33.5483 12.5276 33.468 12.5826C33.3876 12.6376 33.2925 12.6703 33.1935 12.677C33.0944 12.6836 32.9954 12.664 32.9076 12.6203L29.1303 10.7486L25.3531 12.6203C25.25 12.672 25.1302 12.6892 25.0155 12.6704C24.7261 12.6234 24.5315 12.3648 24.5814 12.092L25.3032 8.12771L22.2478 5.32024C22.1647 5.24343 22.1098 5.14311 22.0931 5.03338C22.0482 4.75906 22.2512 4.50512 22.5422 4.46436Z" fill="#FEAC0C"/>
<path d="M44.6291 4.46436L48.8521 3.88594L50.7399 0.279028C50.7915 0.180273 50.8763 0.100328 50.9811 0.0517347C51.2439 -0.0705335 51.5632 0.0313566 51.6946 0.279028L53.5824 3.88594L57.8054 4.46436C57.9218 4.48004 58.0282 4.53177 58.1097 4.61014C58.2083 4.70559 58.2626 4.83399 58.2607 4.96714C58.2588 5.10029 58.2009 5.22729 58.0998 5.32024L55.0444 8.12771L55.7662 12.092C55.7832 12.1842 55.7723 12.2791 55.735 12.3658C55.6976 12.4525 55.6352 12.5276 55.5549 12.5826C55.4745 12.6376 55.3794 12.6703 55.2804 12.677C55.1813 12.6836 55.0823 12.664 54.9945 12.6203L51.2173 10.7486L47.44 12.6203C47.3369 12.672 47.2171 12.6892 47.1024 12.6704C46.813 12.6234 46.6184 12.3648 46.6683 12.092L47.3901 8.12771L44.3347 5.32024C44.2516 5.24343 44.1967 5.14311 44.1801 5.03338C44.1351 4.75906 44.3381 4.50512 44.6291 4.46436Z" fill="#FEAC0C"/>
<path d="M66.716 4.46436L70.939 3.88594L72.8268 0.279028C72.8784 0.180273 72.9632 0.100328 73.068 0.0517347C73.3308 -0.0705335 73.6501 0.0313566 73.7815 0.279028L75.6693 3.88594L79.8923 4.46436C80.0087 4.48004 80.1152 4.53177 80.1967 4.61014C80.2952 4.70559 80.3495 4.83399 80.3476 4.96714C80.3457 5.10029 80.2879 5.22729 80.1867 5.32024L77.1313 8.12771L77.8531 12.092C77.8701 12.1842 77.8592 12.2791 77.8219 12.3658C77.7845 12.4525 77.7221 12.5276 77.6418 12.5826C77.5615 12.6376 77.4664 12.6703 77.3673 12.677C77.2683 12.6836 77.1692 12.664 77.0814 12.6203L73.3042 10.7486L69.5269 12.6203C69.4238 12.672 69.3041 12.6892 69.1893 12.6704C68.8999 12.6234 68.7053 12.3648 68.7552 12.092L69.477 8.12771L66.4217 5.32024C66.3385 5.24343 66.2836 5.14311 66.267 5.03338C66.2221 4.75906 66.425 4.50512 66.716 4.46436Z" fill="#FEAC0C"/>
<path d="M88.803 4.46436L93.0259 3.88594L94.9137 0.279028C94.9653 0.180273 95.0501 0.100328 95.1549 0.0517347C95.4177 -0.0705335 95.737 0.0313566 95.8684 0.279028L97.7562 3.88594L101.979 4.46436C102.096 4.48004 102.202 4.53177 102.284 4.61014C102.382 4.70559 102.436 4.83399 102.435 4.96714C102.433 5.10029 102.375 5.22729 102.274 5.32024L99.2182 8.12771L99.9401 12.092C99.957 12.1842 99.9462 12.2791 99.9088 12.3658C99.8714 12.4525 99.8091 12.5276 99.7287 12.5826C99.6484 12.6376 99.5533 12.6703 99.4542 12.677C99.3552 12.6836 99.2561 12.664 99.1683 12.6203L95.3911 10.7486L91.6138 12.6203C91.5107 12.672 91.391 12.6892 91.2762 12.6704C90.9868 12.6234 90.7922 12.3648 90.8421 12.092L91.5639 8.12771L88.5086 5.32024C88.4254 5.24343 88.3705 5.14311 88.3539 5.03338C88.309 4.75906 88.5119 4.50512 88.803 4.46436Z" fill="#FEAC0C"/>
<path d="M288.53 24.9704H279.222V22.6878H300.376V24.9704H291.068V49.6091H288.53V24.9704Z" fill="#F8F8F8"/>
<path d="M304.566 22.6881H321.219V24.9707H307.104V34.5531H320.335V36.8357H307.104V47.3312H321.832V49.6137H304.562V22.6881H304.566Z" fill="#F8F8F8"/>
<path d="M335.718 22.6881H338.334L349.795 49.6094H346.947L343.987 42.4589H329.565L326.488 49.6094H323.834L335.718 22.6881ZM336.914 25.4272L330.566 40.1806H343.067L336.914 25.4272Z" fill="#F8F8F8"/>
<path d="M353.451 22.6881H357.257L367.178 45.2747L377.099 22.6881H380.715V49.6094H378.178V25.8794H378.1L367.717 49.6052H366.604L356.066 25.8794H355.988V49.6052H353.451V22.6881Z" fill="#F8F8F8"/>
<path d="M6.80664 61.2074V64.6994H5.35706V61.1778L1.29907 54.5955H2.85984L6.13102 59.9222L9.41504 54.5955H10.8604L6.80664 61.2074Z" fill="#F8F8F8"/>
<path d="M13.3746 59.647C13.3746 56.6877 15.6836 54.4767 18.8223 54.4767C21.931 54.4767 24.2401 56.6708 24.2401 59.647C24.2401 62.619 21.931 64.8174 18.8223 64.8174C15.6794 64.8174 13.3746 62.6063 13.3746 59.647ZM22.7776 59.647C22.7776 57.4106 21.0843 55.7619 18.8223 55.7619C16.5303 55.7619 14.837 57.4064 14.837 59.647C14.837 61.8876 16.5303 63.5322 18.8223 63.5322C21.0843 63.5322 22.7776 61.8876 22.7776 59.647Z" fill="#F8F8F8"/>
<path d="M28.8029 60.3407V54.5955H30.2654V60.2858C30.2654 62.5222 31.3002 63.5326 33.1432 63.5326C34.9861 63.5326 36.0338 62.5222 36.0338 60.2858V54.5955H37.4491V60.3407C37.4491 63.2705 35.8285 64.8178 33.126 64.8178C30.4407 64.8178 28.8029 63.2705 28.8029 60.3407Z" fill="#F8F8F8"/>
<path d="M49.61 64.6994L47.4035 61.5963C47.1983 61.609 46.9802 61.6259 46.7621 61.6259H44.235V64.6994H42.7726V54.5955H46.7578C49.4176 54.5955 51.0211 55.9229 51.0211 58.117C51.0211 59.677 50.2043 60.8016 48.7719 61.3089L51.1964 64.7036H49.61V64.6994ZM49.5672 58.117C49.5672 56.6712 48.588 55.8511 46.7194 55.8511H44.235V60.3999H46.7194C48.588 60.3999 49.5672 59.5629 49.5672 58.117Z" fill="#F8F8F8"/>
<path d="M71.4609 54.5955L66.9796 64.6994H65.5342L61.0358 54.5955H62.6137L66.2954 62.8984L70.0027 54.5955H71.4609Z" fill="#F8F8F8"/>
<path d="M81.1588 62.1744H75.7282L74.6036 64.7025H73.0984L77.7294 54.5985H79.1747L83.8186 64.7025H82.2834L81.1588 62.1744ZM80.6457 61.0202L78.4393 56.0697L76.2328 61.0202H80.6457Z" fill="#F8F8F8"/>
<path d="M87.7951 54.5955H89.2575V63.4438H94.7907V64.6994H87.7951V54.5955Z" fill="#F8F8F8"/>
<path d="M98.8445 54.5955H100.307V63.4438H105.84V64.6994H98.8445V54.5955Z" fill="#F8F8F8"/>
<path d="M117.308 63.4438V64.6994H109.889V54.5955H117.103V55.8511H111.348V58.9541H116.475V60.1801H111.348V63.4438H117.308Z" fill="#F8F8F8"/>
<path d="M126.331 61.2074V64.6994H124.886V61.1778L120.828 54.5955H122.389L125.66 59.9222L128.944 54.5955H130.389L126.331 61.2074Z" fill="#F8F8F8"/>
<path d="M155.494 54.5955L152.078 64.6994H150.542L147.754 56.6289L144.966 64.6994H143.406L139.989 54.5955H141.494L144.252 62.8097L147.13 54.5955H148.473L151.291 62.8519L154.109 54.5955H155.494Z" fill="#F8F8F8"/>
<path d="M159.727 54.5955H161.19V64.6994H159.727V54.5955Z" fill="#F8F8F8"/>
<path d="M166.56 54.5955H170.866C174.15 54.5955 176.387 56.6458 176.387 59.6474C176.387 62.649 174.155 64.6994 170.866 64.6994H166.56V54.5955ZM170.781 63.4438C173.308 63.4438 174.929 61.9134 174.929 59.6474C174.929 57.3814 173.308 55.8511 170.781 55.8511H168.023V63.4438H170.781Z" fill="#F8F8F8"/>
<path d="M188.48 63.4438V64.6994H181.061V54.5955H188.275V55.8511H182.519V58.9541H187.646V60.1801H182.519V63.4438H188.48Z" fill="#F8F8F8"/>
<path d="M206.871 64.6994L204.665 61.5963C204.459 61.609 204.241 61.6259 204.023 61.6259H201.496V64.6994H200.034V54.5955H204.019C206.679 54.5955 208.282 55.9229 208.282 58.117C208.282 59.677 207.465 60.8016 206.033 61.3089L208.457 64.7036H206.871V64.6994ZM206.824 58.117C206.824 56.6712 205.845 55.8511 203.976 55.8511H201.496V60.3999H203.976C205.849 60.3999 206.824 59.5629 206.824 58.117Z" fill="#F8F8F8"/>
<path d="M220.494 63.4438V64.6994H213.075V54.5955H220.289V55.8511H214.538V58.9541H219.665V60.1801H214.538V63.4438H220.494Z" fill="#F8F8F8"/>
<path d="M232.198 62.1744H226.767L225.643 64.7025H224.138L228.769 54.5985H230.214L234.858 64.7025H233.323L232.198 62.1744ZM231.685 61.0202L229.478 56.0697L227.272 61.0202H231.685Z" fill="#F8F8F8"/>
<path d="M238.839 54.5955H240.301V63.4438H245.835V64.6994H238.839V54.5955Z" fill="#F8F8F8"/>
<path d="M264.118 63.4438V64.6994H256.699V54.5955H263.913V55.8511H258.162V58.9541H263.289V60.1801H258.162V63.4438H264.118Z" fill="#F8F8F8"/>
<path d="M268.053 63.5448L268.592 62.4202C269.353 63.0966 270.649 63.5913 271.966 63.5913C273.732 63.5913 274.493 62.9148 274.493 62.0313C274.493 59.5624 268.301 61.1223 268.301 57.3682C268.301 55.8083 269.528 54.4808 272.214 54.4808C273.411 54.4808 274.651 54.7979 275.498 55.3771L275.015 56.5312C274.125 55.9689 273.116 55.7068 272.209 55.7068C270.473 55.7068 269.725 56.4297 269.725 57.3091C269.725 59.778 275.917 58.2349 275.917 61.9425C275.917 63.4856 274.66 64.8173 271.961 64.8173C270.405 64.8173 268.87 64.2973 268.053 63.5448Z" fill="#F8F8F8"/>
<path d="M282.758 55.8511H279.252V54.5955H287.706V55.8511H284.199V64.6994H282.754V55.8511H282.758Z" fill="#F8F8F8"/>
<path d="M297.211 62.1744H291.781L290.656 64.7025H289.151L293.782 54.5985H295.227L299.871 64.7025H298.336L297.211 62.1744ZM296.698 61.0202L294.492 56.0697L292.285 61.0202H296.698Z" fill="#F8F8F8"/>
<path d="M304.818 55.8511H301.312V54.5955H309.766V55.8511H306.259V64.6994H304.814V55.8511H304.818Z" fill="#F8F8F8"/>
<path d="M321.2 63.4438V64.6994H313.781V54.5955H320.995V55.8511H315.243V58.9541H320.37V60.1801H315.243V63.4438H321.2Z" fill="#F8F8F8"/>
<path d="M334.781 55.8511H331.274V54.5955H339.728V55.8511H336.222V64.6994H334.776V55.8511H334.781Z" fill="#F8F8F8"/>
<path d="M351.162 63.4438V64.6994H343.743V54.5955H350.957V55.8511H345.206V58.9541H350.333V60.1801H345.206V63.4438H351.162Z" fill="#F8F8F8"/>
<path d="M362.866 62.1744H357.435L356.31 64.7025H354.805L359.436 54.5985H360.882L365.525 64.7025H363.99L362.866 62.1744ZM362.357 61.0202L360.15 56.0697L357.944 61.0202H362.357Z" fill="#F8F8F8"/>
<path d="M378.982 64.6995L378.969 57.335L375.275 63.4692H374.604L370.909 57.3773V64.6952H369.507V54.5913H370.704L374.967 61.6937L379.17 54.5913H380.368L380.381 64.6952H378.982V64.6995Z" fill="#F8F8F8"/>
<path fill-rule="evenodd" clip-rule="evenodd" d="M423.087 49.0012C427.024 48.9536 429.695 50.3237 430.861 53.0413C431.157 53.7294 431.298 54.5043 431.48 55.3055C431.646 56.0408 431.636 57.4358 431.48 58.1469C431.465 58.3837 431.45 58.6205 431.436 58.8573C431.297 59.4433 431.21 60.0583 430.994 60.5887C430.015 62.9923 428.266 64.2011 425.516 64.8508C424.648 65.0559 423.103 65.0435 422.247 64.8508C421.436 64.6681 420.76 64.6848 420.083 64.4069C418.161 63.6176 416.829 62.1798 416.107 60.1892C415.393 58.218 415.576 54.9702 416.328 53.2189C417.123 51.3667 418.623 50.0546 420.613 49.4008C421.177 49.2156 421.816 49.1797 422.424 49.0456C422.641 48.9977 422.933 49.097 423.087 49.0012ZM401 49.2676H406.212C406.9 50.4962 407.683 51.718 408.421 52.9081C408.631 53.2469 409.035 54.2664 409.349 54.4176V54.3732C409.675 54.016 409.839 53.5066 410.1 53.0857C410.605 52.2681 411.139 51.4164 411.646 50.5995C411.796 50.3578 412.209 49.3687 412.397 49.2676H417.653V49.312C417.413 49.5094 417.299 49.8462 417.123 50.1111C416.657 50.8149 416.186 51.5253 415.71 52.2422C414.79 53.6318 413.856 55.0125 412.927 56.4154C412.608 56.8973 412.284 57.3856 411.955 57.8805C411.895 57.9706 411.73 58.0936 411.69 58.1913V64.6732H406.919V58.1913C406.749 58.052 406.69 57.8466 406.566 57.6586C406.247 57.1768 405.923 56.6885 405.594 56.1935C404.587 54.6731 403.563 53.1567 402.546 51.6206C402.185 51.0751 401.811 50.5362 401.442 49.9779C401.294 49.754 401.061 49.5784 401 49.2676ZM432.496 49.2676H437.222V56.7262C437.222 58.274 437.155 59.6786 437.797 60.5443C438.117 60.9768 439.326 61.5593 440.27 61.3435C441.075 61.1596 441.708 60.8818 442.081 60.278C442.559 59.5062 442.435 58.0595 442.435 56.815V49.2676H447.161C447.351 49.8462 447.206 51.4618 447.206 52.1978V58.7241C447.118 58.8706 447.207 59.1384 447.161 59.3456C447.088 59.7452 447.014 60.1448 446.941 60.5443C446.478 61.9755 445.747 63.0965 444.643 63.8741C443.987 64.3369 443.155 64.5818 442.258 64.8064L441.242 64.8952C440.494 65.0566 439.198 65.0035 438.503 64.8508C437.796 64.6954 437.174 64.7842 436.56 64.5844C435.133 64.1201 434.054 63.2251 433.335 62.0538C432.512 60.714 432.496 58.775 432.496 56.593V49.2676ZM448.752 49.2676H455.819C457.924 49.2676 459.906 49.3141 461.12 50.1999C462.416 51.1449 463.093 53.6083 462.225 55.5275C461.669 56.7555 460.435 57.5733 458.956 57.8805V57.9249C460.993 58.2203 462.008 61.1469 462.843 62.7642C463.154 63.3663 463.628 63.9874 463.815 64.6732H458.47C458.24 64.1487 457.919 63.6388 457.631 63.1637C457.076 62.2513 456.671 61.2604 456.129 60.3668C455.778 59.7884 455.59 59.0785 455.024 58.7241C454.64 58.4834 454.166 58.4501 453.522 58.4577V64.6732H448.752V49.2676ZM453.522 52.4197V55.5275C455.231 55.5573 457.1 55.6811 457.675 54.5508C457.749 54.4046 457.895 54.088 457.851 53.8404C457.529 52.0133 455.585 52.3911 453.522 52.4197ZM423.131 52.6417L422.38 52.8193C421.541 53.1745 420.948 53.9101 420.657 54.8172C420.141 56.4295 420.389 59.1684 421.143 60.2336C421.393 60.5862 421.759 60.8245 422.159 61.0327C422.524 61.2227 423.245 61.5285 423.882 61.3879C424.928 61.157 425.7 60.9188 426.179 60.1448C426.448 59.7106 426.579 59.1003 426.709 58.5465C426.724 58.2653 426.738 57.9841 426.753 57.703C426.842 57.2834 426.844 56.4797 426.753 56.0603C426.662 55.6409 426.738 55.3152 426.621 54.9504C426.125 53.408 425.206 52.6205 423.131 52.6417Z" fill="#F8F8F8"/>
<path fill-rule="evenodd" clip-rule="evenodd" d="M495.743 45.4445H497.593V45.4937C497.344 45.7712 497.258 46.1452 497.057 46.4783C496.55 47.3194 496.118 48.2251 495.597 49.0875C494.045 51.6552 492.669 54.3956 491.119 56.9645C490.442 58.0855 489.885 59.2626 489.22 60.3614C489.03 60.6749 488.91 61.2781 488.587 61.4445C488.426 60.7961 487.848 60.1591 487.516 59.6229C486.714 58.3243 486.07 56.9906 485.277 55.6845C484.864 55.0032 484.217 54.2564 483.963 53.4691H484.304C484.619 53.6656 485.73 53.6324 486.153 53.7152C486.855 55.193 488.04 56.3958 488.782 57.8506C488.821 57.8003 488.799 57.8371 488.831 57.7521C489.147 57.4183 489.266 56.93 489.512 56.5214C490.087 55.5678 490.577 54.5429 491.167 53.5675C492.123 51.9866 492.927 50.299 493.893 48.6937C494.522 47.6492 495.207 46.561 495.743 45.4445Z" fill="#D02030"/>
<path fill-rule="evenodd" clip-rule="evenodd" d="M487.65 49.0031C489.953 48.9549 491.331 49.4704 492.658 50.331V50.4226C492.353 50.6744 491.935 51.5939 491.739 51.9794C491.147 51.6729 490.656 51.2049 489.948 50.9721C487.418 50.1409 484.864 51.5981 483.975 53.0326C482.336 55.6767 482.963 60.5326 485.078 62.099C485.606 62.4966 486.195 62.8059 486.823 63.0148C487.319 63.1732 488.151 63.2749 488.707 63.1522C489.317 63.0175 489.777 63.0784 490.269 62.8774C492.04 62.1542 492.979 60.7568 493.485 58.7563C493.684 57.9699 493.726 56.3765 493.531 55.5511C493.467 55.2763 493.158 54.3044 493.21 54.1774C493.366 53.5733 494.056 52.6992 494.358 52.1168L494.45 52.1626C494.87 52.998 495.27 53.8373 495.553 54.8642C495.83 55.8712 495.848 57.5827 495.599 58.619C495.504 59.014 495.533 59.31 495.415 59.6721C494.677 61.944 493.455 63.4507 491.326 64.3427C490.401 64.7301 488.629 65.2205 487.191 64.8922C486.445 64.7218 485.76 64.5739 485.123 64.2969C483.14 63.4342 482.011 61.7507 481.31 59.5806C481.063 58.8159 480.766 57.5403 480.989 56.5126V55.8716C481.111 55.315 481.137 54.7104 481.31 54.1774C481.621 53.2211 482.054 52.3447 482.597 51.6131C483.345 50.604 484.524 49.8394 485.813 49.3694C486.238 49.2142 486.74 49.152 487.191 49.0489C487.357 49.0108 487.54 49.0712 487.65 49.0031ZM465 49.5068H469.778V54.8642H474.97V49.5068H479.794V64.8922H474.97V58.6648H469.778V64.8922H465V49.5068ZM496.793 49.5068H503.134C503.17 50.2402 503.487 51.0092 503.685 51.6589C504.135 53.1396 504.396 54.6609 504.833 56.1005C505.038 56.7736 505.146 57.4351 505.339 58.0695C505.414 58.3161 505.383 58.582 505.523 58.7563V58.7106C505.826 58.2505 505.931 56.9921 506.12 56.3753C506.616 54.7605 506.931 52.9875 507.452 51.3842C507.618 50.8751 507.633 49.9358 507.912 49.5526C508.142 49.41 509.283 49.5068 509.658 49.5068H514.206V64.8922H510.255V54.2689C510.255 54.016 510.314 53.5684 510.209 53.3989C510.117 54.3193 509.691 55.5566 509.428 56.4211C508.904 58.144 508.636 59.9256 508.095 61.5953C507.843 62.3747 507.723 63.1943 507.498 63.9306C507.406 64.2328 507.438 64.617 507.268 64.8464C507.076 64.9668 506.54 64.8922 506.258 64.8922H503.731C503.715 64.8771 503.7 64.8615 503.685 64.8464C503.668 64.5085 503.539 64.2067 503.455 63.9306C503.251 63.2598 503.143 62.5963 502.95 61.9616C502.39 60.1192 502.105 58.21 501.525 56.4211C501.292 55.7008 501.192 54.9425 500.974 54.2689C500.876 53.9667 500.915 53.5846 500.744 53.3531V64.8922H496.793V49.5068ZM515.952 49.5068H528.77V52.7579C528.195 52.9466 526.942 52.8037 526.243 52.8037H520.73V55.2305H528.173V58.39H520.73V61.4122H529V64.8922H515.952V49.5068Z" fill="#0071BA"/>
<path fill-rule="evenodd" clip-rule="evenodd" d="M544.634 52.8004L539.797 53.0723C539.742 52.0178 539.069 51.3041 538.215 51.0331C536.871 50.6071 535.518 51.1332 535.548 52.4832C535.733 52.6717 535.813 52.9264 536.045 53.0723C536.9 53.6111 538.632 53.6754 539.707 54.0239C541.724 54.6778 543.481 55.2298 544.499 56.8788C544.82 57.4 545.407 58.6815 545.177 59.6884C545.035 60.3111 544.937 60.8712 544.725 61.3651C544.374 62.1813 543.895 62.9521 543.233 63.4497C540.342 65.6221 533.617 65.6276 531.524 62.7246C530.927 61.8971 530.654 61.3148 530.349 60.1416C530.304 59.968 530.115 59.364 530.213 59.2353C530.496 59.0613 530.96 59.2276 531.343 59.1446L535.05 58.8727C535.198 60.3138 535.88 61.3049 537.13 61.637C538.631 62.0363 540.653 61.1109 540.159 59.5978C539.713 58.232 537.858 58.2098 536.452 57.7852C534.202 57.1063 532.029 56.452 531.162 54.3864C530.923 53.815 530.634 52.8484 530.846 51.9847L531.117 51.0331C531.811 49.4271 533.197 48.5878 535.005 48.0875C535.551 47.9366 536.067 48.0359 536.678 47.9063C537.241 47.7866 538.33 47.7821 538.893 47.9063C539.608 48.064 540.215 47.9756 540.837 48.1782C543.011 48.8864 544.337 50.2187 544.634 52.8004ZM553.269 47.8609C557.081 47.8165 559.612 48.5914 561.181 50.7612C561.492 51.1917 561.86 51.6448 562.085 52.166C562.372 52.8321 562.535 53.5839 562.718 54.3411C562.864 54.9493 562.944 56.2462 562.808 56.8788V57.6039C562.658 58.2936 562.653 59.0037 562.446 59.6431C561.578 62.3249 559.806 63.9513 557.021 64.7185C556.414 64.8862 555.741 64.9442 555.032 64.9451C549.969 64.951 547.4 63.374 546.172 59.5525C545.554 57.6306 545.571 54.5183 546.307 52.7098C547.126 50.6986 548.507 49.2703 550.511 48.45C551.105 48.2072 551.798 48.1047 552.455 47.9516C552.722 47.8895 553.067 47.9869 553.269 47.8609ZM563.667 48.1328H568.776V60.5948H576.732V64.6732H563.667V48.1328ZM577.772 48.1328H583.965C585.896 48.1328 587.65 48.1433 588.983 48.7219C590.57 49.4103 591.67 50.7693 592.329 52.3925C592.554 52.9454 592.581 53.4761 592.736 54.1146C592.977 55.1106 593.117 56.747 592.871 57.8758C592.856 58.1477 592.841 58.4196 592.826 58.6915C592.603 59.6522 592.416 60.5821 591.967 61.3198C591.252 62.4967 590.233 63.5367 588.893 64.0841C587.357 64.7117 585.318 64.6732 583.152 64.6732H577.772V48.1328ZM553.631 51.7581C553.375 51.8338 553.118 51.9093 552.862 51.9847C552.13 52.3427 551.552 52.9544 551.235 53.7067C551.026 54.2061 550.996 54.8093 550.873 55.3834V56.2897C550.772 56.7832 550.89 57.6859 551.009 58.1477C551.147 58.6842 551.166 59.1378 551.416 59.5525C551.957 60.4525 553.345 61.4857 554.987 61.0932C555.674 60.9292 556.43 60.6333 556.795 60.1416C557.766 58.8347 558.118 55.513 557.338 53.6614C556.757 52.2838 555.646 51.7386 553.631 51.7581ZM582.88 51.8941V60.912C584.481 60.9278 586.315 61.0108 586.994 60.0963C588.154 58.5342 588.112 54.3207 586.949 52.8004C586.239 51.8723 584.536 51.8796 582.88 51.8941Z" fill="#B11F29"/>
<path fill-rule="evenodd" clip-rule="evenodd" d="M475.074 47.8148H479.689L501.382 34.6975L508.382 42.3364L506.92 42.6451L502.382 46.8889H510.92L516.766 41.642L521.613 47.7377H523.074L516.689 39.8673L509.305 41.5648L501.536 33L487.766 39.0185L487.536 34.929L485.151 34.8519L483.689 35.7778L483.843 40.6389L481.92 41.4877L475.074 47.8148Z" fill="#54585A"/>
</svg>
