<svg width="183" height="39" viewBox="0 0 183 39" fill="none" xmlns="http://www.w3.org/2000/svg">
<path d="M9.25479 21.9433C8.97082 21.6031 8.6226 21.3408 8.21013 21.1584C7.79765 20.976 7.32092 20.8838 6.77786 20.8838C6.2348 20.8838 5.7332 20.9883 5.27305 21.1953C4.81083 21.4023 4.41079 21.6912 4.07294 22.0621C3.73301 22.433 3.46977 22.8757 3.27908 23.3859C3.08838 23.8982 2.99304 24.4515 2.99304 25.0479C2.99304 25.6565 3.08838 26.2139 3.27908 26.718C3.46977 27.2242 3.73093 27.6627 4.06464 28.0336C4.39628 28.4045 4.78803 28.6935 5.23782 28.9004C5.6876 29.1074 6.17055 29.2119 6.68873 29.2119C7.27947 29.2119 7.80387 29.091 8.25987 28.8472C8.71587 28.6033 9.09104 28.2631 9.38744 27.8246L11.7898 29.5951C11.2363 30.3615 10.5337 30.9292 9.68385 31.294C8.83402 31.6587 7.95932 31.8411 7.05976 31.8411C6.03789 31.8411 5.0948 31.6833 4.23254 31.3657C3.37028 31.0501 2.62616 30.5952 1.99812 30.005C1.37008 29.4148 0.880915 28.6996 0.528549 27.8594C0.176183 27.0192 0 26.0827 0 25.0479C0 24.013 0.176183 23.0765 0.526476 22.2342C0.876769 21.3941 1.36801 20.6789 1.99605 20.0887C2.62409 19.4985 3.3682 19.0456 4.23046 18.728C5.09272 18.4124 6.03375 18.2526 7.05768 18.2526C7.42663 18.2526 7.81216 18.2874 8.2122 18.353C8.61224 18.4206 9.00606 18.5272 9.39366 18.6727C9.78126 18.8182 10.1544 19.0128 10.5109 19.2567C10.8674 19.5006 11.1887 19.7977 11.4705 20.1522L9.25479 21.9433Z" fill="#F8F8F8"/>
<path d="M17.6598 18.5808H20.0434L25.7331 31.5115H22.481L21.3534 28.7717H16.2752L15.1849 31.5115H12.0074L17.6598 18.5808ZM18.7687 22.3432L17.1789 26.3618H20.3751L18.7687 22.3432Z" fill="#F8F8F8"/>
<path d="M27.0452 18.5808H32.1068C32.7722 18.5808 33.4023 18.6443 33.9992 18.7734C34.5962 18.9005 35.1206 19.1136 35.5704 19.4128C36.0201 19.712 36.3766 20.1136 36.642 20.6177C36.9073 21.1239 37.0399 21.753 37.0399 22.5071C37.0399 23.4211 36.7995 24.1957 36.3186 24.8351C35.8377 25.4744 35.1371 25.8802 34.2127 26.0503L37.5374 31.5115H34.0821L31.3482 26.3433H29.9263V31.5115H27.0452V18.5808ZM29.9263 23.9314H31.6259C31.885 23.9314 32.1586 23.9232 32.4488 23.9047C32.739 23.8863 33.0002 23.8309 33.2344 23.7408C33.4686 23.6486 33.6614 23.5072 33.8168 23.3125C33.9702 23.1178 34.0469 22.8432 34.0469 22.4907C34.0469 22.1629 33.9785 21.9006 33.8438 21.7059C33.709 21.5112 33.5349 21.3616 33.3256 21.2591C33.1162 21.1567 32.8758 21.085 32.6043 21.0481C32.3327 21.0112 32.0695 20.9927 31.8104 20.9927H29.9263V23.9314Z" fill="#F8F8F8"/>
<path d="M38.3126 25.0468C38.3126 24.0119 38.4888 23.0754 38.8391 22.2332C39.1894 21.393 39.6806 20.6778 40.3087 20.0876C40.9367 19.4974 41.6808 19.0446 42.5431 18.7269C43.4053 18.4113 44.3464 18.2515 45.3703 18.2515C46.3922 18.2515 47.3353 18.4093 48.1975 18.7269C49.0598 19.0446 49.8039 19.4974 50.4319 20.0876C51.06 20.6778 51.5491 21.393 51.9015 22.2332C52.2518 23.0734 52.428 24.0119 52.428 25.0468C52.428 26.0817 52.2518 27.0182 51.9015 27.8583C51.5512 28.6985 51.06 29.4137 50.4319 30.0039C49.8039 30.5941 49.0577 31.047 48.1975 31.3646C47.3353 31.6802 46.3922 31.84 45.3703 31.84C44.3484 31.84 43.4053 31.6822 42.5431 31.3646C41.6808 31.049 40.9367 30.5941 40.3087 30.0039C39.6806 29.4137 39.1915 28.6985 38.8391 27.8583C38.4888 27.0182 38.3126 26.0817 38.3126 25.0468ZM41.3057 25.0468C41.3057 25.6554 41.401 26.2128 41.5917 26.7169C41.7824 27.2231 42.056 27.6616 42.4146 28.0325C42.7711 28.4035 43.2001 28.6924 43.6976 28.8994C44.1971 29.1063 44.7526 29.2109 45.3703 29.2109C45.9859 29.2109 46.5435 29.1084 47.043 28.8994C47.5425 28.6924 47.9695 28.4035 48.326 28.0325C48.6825 27.6616 48.9561 27.2231 49.1489 26.7169C49.3396 26.2128 49.4349 25.6554 49.4349 25.0468C49.4349 24.4505 49.3396 23.8951 49.1489 23.3849C48.9582 22.8725 48.6846 22.432 48.326 22.061C47.9695 21.6901 47.5405 21.4012 47.043 21.1942C46.5435 20.9872 45.9859 20.8827 45.3703 20.8827C44.7547 20.8827 44.1971 20.9872 43.6976 21.1942C43.1981 21.4012 42.7711 21.6901 42.4146 22.061C42.0581 22.432 41.7824 22.8746 41.5917 23.3849C41.401 23.8951 41.3057 24.4505 41.3057 25.0468Z" fill="#F8F8F8"/>
<path d="M54.4944 18.5808H57.3755V28.8823H62.7149V31.5115H54.4944V18.5808Z" fill="#F8F8F8"/>
<path d="M69.7704 18.5808H74.8321C75.4974 18.5808 76.1276 18.6443 76.7245 18.7734C77.3215 18.9005 77.8459 19.1136 78.2956 19.4128C78.7454 19.712 79.1019 20.1136 79.3672 20.6177C79.6326 21.1239 79.7652 21.753 79.7652 22.5071C79.7652 23.4211 79.5248 24.1957 79.0439 24.8351C78.563 25.4744 77.8624 25.8802 76.938 26.0503L80.2627 31.5115H76.8074L74.0735 26.3433H72.6516V31.5115H69.7704V18.5808ZM72.6536 23.9314H74.3533C74.6124 23.9314 74.886 23.9232 75.1762 23.9047C75.4663 23.8863 75.7275 23.8309 75.9617 23.7408C76.196 23.6486 76.3887 23.5072 76.5442 23.3125C76.6976 23.1178 76.7742 22.8432 76.7742 22.4907C76.7742 22.1629 76.7058 21.9006 76.5711 21.7059C76.4364 21.5112 76.2623 21.3616 76.0529 21.2591C75.8436 21.1567 75.6031 21.085 75.3316 21.0481C75.0601 21.0112 74.7968 20.9927 74.5378 20.9927H72.6536V23.9314Z" fill="#F8F8F8"/>
<path d="M81.04 25.0468C81.04 24.0119 81.2162 23.0754 81.5665 22.2332C81.9168 21.393 82.408 20.6778 83.0361 20.0876C83.6641 19.4974 84.4082 19.0446 85.2705 18.7269C86.1327 18.4113 87.0738 18.2515 88.0977 18.2515C89.1195 18.2515 90.0626 18.4093 90.9249 18.7269C91.7872 19.0446 92.5313 19.4974 93.1593 20.0876C93.7874 20.6778 94.2765 21.393 94.6268 22.2332C94.9771 23.0734 95.1533 24.0119 95.1533 25.0468C95.1533 26.0817 94.9771 27.0182 94.6268 27.8583C94.2765 28.6985 93.7874 29.4137 93.1593 30.0039C92.5313 30.5941 91.7851 31.047 90.9249 31.3646C90.0626 31.6802 89.1216 31.84 88.0977 31.84C87.0758 31.84 86.1327 31.6822 85.2705 31.3646C84.4082 31.049 83.6641 30.5941 83.0361 30.0039C82.408 29.4137 81.9188 28.6985 81.5665 27.8583C81.2162 27.0182 81.04 26.0817 81.04 25.0468ZM84.033 25.0468C84.033 25.6554 84.1284 26.2128 84.3191 26.7169C84.5098 27.2231 84.7834 27.6616 85.142 28.0325C85.4985 28.4035 85.9275 28.6924 86.425 28.8994C86.9245 29.1063 87.48 29.2109 88.0977 29.2109C88.7133 29.2109 89.2709 29.1084 89.7704 28.8994C90.2699 28.6924 90.6969 28.4035 91.0534 28.0325C91.4099 27.6616 91.6835 27.2231 91.8763 26.7169C92.067 26.2128 92.1623 25.6554 92.1623 25.0468C92.1623 24.4505 92.067 23.8951 91.8763 23.3849C91.6856 22.8725 91.412 22.432 91.0534 22.061C90.6969 21.6901 90.2678 21.4012 89.7704 21.1942C89.2709 20.9872 88.7154 20.8827 88.0977 20.8827C87.4821 20.8827 86.9245 20.9872 86.425 21.1942C85.9255 21.4012 85.4985 21.6901 85.142 22.061C84.7854 22.432 84.5098 22.8746 84.3191 23.3849C84.1284 23.8951 84.033 24.4505 84.033 25.0468Z" fill="#F8F8F8"/>
<path d="M100.325 25.9949L95.4103 18.5808H98.9941L101.765 23.4211L104.702 18.5808H108.12L103.206 25.9949V31.5115H100.325V25.9949Z" fill="#F8F8F8"/>
<path d="M115.547 21.7414C115.313 21.4483 114.996 21.2331 114.596 21.0938C114.196 20.9544 113.816 20.8827 113.46 20.8827C113.25 20.8827 113.035 20.9073 112.813 20.9565C112.591 21.0057 112.382 21.0815 112.185 21.184C111.988 21.2885 111.828 21.4237 111.704 21.5938C111.582 21.7639 111.52 21.9709 111.52 22.2147C111.52 22.6041 111.667 22.9033 111.963 23.1103C112.26 23.3172 112.631 23.4935 113.08 23.639C113.53 23.7845 114.013 23.932 114.531 24.0775C115.049 24.223 115.532 24.43 115.982 24.6984C116.432 24.9669 116.805 25.3255 117.099 25.7763C117.396 26.2272 117.543 26.8296 117.543 27.5838C117.543 28.303 117.408 28.9301 117.137 29.465C116.865 30.0019 116.5 30.4445 116.038 30.799C115.576 31.1515 115.041 31.4138 114.432 31.5839C113.822 31.754 113.178 31.84 112.502 31.84C111.652 31.84 110.865 31.713 110.137 31.4568C109.41 31.2007 108.734 30.7867 108.106 30.215L110.156 27.9875C110.452 28.3768 110.823 28.678 111.273 28.8912C111.723 29.1043 112.187 29.2109 112.668 29.2109C112.902 29.2109 113.138 29.1842 113.379 29.1289C113.619 29.0736 113.835 28.9916 114.026 28.883C114.216 28.7723 114.37 28.633 114.488 28.4629C114.604 28.2928 114.664 28.092 114.664 27.8604C114.664 27.471 114.513 27.1637 114.212 26.9382C113.909 26.7128 113.532 26.5202 113.076 26.3624C112.62 26.2046 112.127 26.0468 111.598 25.887C111.068 25.7292 110.577 25.5161 110.121 25.2476C109.665 24.9792 109.285 24.6267 108.985 24.1882C108.682 23.7496 108.533 23.1717 108.533 22.4524C108.533 21.7578 108.672 21.1491 108.947 20.6266C109.225 20.104 109.594 19.6655 110.056 19.311C110.518 18.9585 111.051 18.6921 111.654 18.5158C112.258 18.3396 112.879 18.2515 113.52 18.2515C114.258 18.2515 114.973 18.356 115.663 18.563C116.353 18.77 116.975 19.1163 117.528 19.604L115.547 21.7414Z" fill="#F8F8F8"/>
<path d="M119.796 18.5808H128.682V21.21H122.677V23.6199H128.348V26.249H122.677V28.8782H129.014V31.5074H119.796V18.5808Z" fill="#F8F8F8"/>
<path d="M0.872905 8.12859L4.51639 7.62955L6.14512 4.51759C6.1896 4.43239 6.26279 4.36342 6.3532 4.32149C6.57993 4.216 6.85545 4.30391 6.96881 4.51759L8.59755 7.62955L12.241 8.12859C12.3415 8.14212 12.4333 8.18675 12.5036 8.25437C12.5886 8.33672 12.6355 8.4475 12.6339 8.56238C12.6323 8.67726 12.5823 8.78683 12.495 8.86702L9.85892 11.2892L10.4817 14.7095C10.4963 14.7891 10.487 14.8709 10.4547 14.9457C10.4225 15.0206 10.3687 15.0854 10.2994 15.1328C10.23 15.1803 10.148 15.2085 10.0625 15.2142C9.97709 15.22 9.89163 15.203 9.81587 15.1653L6.55697 13.5505L3.29807 15.1653C3.2091 15.2099 3.10577 15.2248 3.00676 15.2086C2.75707 15.168 2.58917 14.9449 2.63222 14.7095L3.25502 11.2892L0.618908 8.86702C0.547157 8.80076 0.499803 8.7142 0.485453 8.61953C0.446708 8.38285 0.621778 8.16376 0.872905 8.12859Z" fill="#FEAC0C"/>
<path d="M19.9288 8.12859L23.5723 7.62955L25.2011 4.51759C25.2455 4.43239 25.3187 4.36342 25.4091 4.32149C25.6359 4.216 25.9114 4.30391 26.0248 4.51759L27.6535 7.62955L31.297 8.12859C31.3974 8.14212 31.4893 8.18675 31.5596 8.25437C31.6446 8.33672 31.6914 8.4475 31.6898 8.56238C31.6882 8.67726 31.6383 8.78683 31.551 8.86702L28.9149 11.2892L29.5376 14.7095C29.5523 14.7891 29.5429 14.8709 29.5107 14.9457C29.4785 15.0206 29.4246 15.0854 29.3553 15.1328C29.286 15.1803 29.2039 15.2085 29.1185 15.2142C29.033 15.22 28.9476 15.203 28.8718 15.1653L25.6129 13.5505L22.354 15.1653C22.265 15.2099 22.1617 15.2248 22.0627 15.2086C21.813 15.168 21.6451 14.9449 21.6882 14.7095L22.311 11.2892L19.6748 8.86702C19.6031 8.80076 19.5557 8.7142 19.5414 8.61953C19.5026 8.38285 19.6777 8.16376 19.9288 8.12859Z" fill="#FEAC0C"/>
<path d="M38.985 8.12859L42.6285 7.62955L44.2572 4.51759C44.3017 4.43239 44.3749 4.36342 44.4653 4.32149C44.692 4.216 44.9675 4.30391 45.0809 4.51759L46.7096 7.62955L50.3531 8.12859C50.4536 8.14212 50.5454 8.18675 50.6157 8.25437C50.7007 8.33672 50.7476 8.4475 50.746 8.56238C50.7443 8.67726 50.6944 8.78683 50.6071 8.86702L47.971 11.2892L48.5938 14.7095C48.6084 14.7891 48.5991 14.8709 48.5668 14.9457C48.5346 15.0206 48.4808 15.0854 48.4115 15.1328C48.3421 15.1803 48.2601 15.2085 48.1746 15.2142C48.0892 15.22 48.0037 15.203 47.928 15.1653L44.6691 13.5505L41.4102 15.1653C41.3212 15.2099 41.2179 15.2248 41.1188 15.2086C40.8692 15.168 40.7013 14.9449 40.7443 14.7095L41.3671 11.2892L38.731 8.86702C38.6592 8.80076 38.6119 8.7142 38.5975 8.61953C38.5588 8.38285 38.7339 8.16376 38.985 8.12859Z" fill="#FEAC0C"/>
<path d="M58.0412 8.12859L61.6847 7.62955L63.3134 4.51759C63.3579 4.43239 63.4311 4.36342 63.5215 4.32149C63.7482 4.216 64.0237 4.30391 64.1371 4.51759L65.7658 7.62955L69.4093 8.12859C69.5098 8.14212 69.6016 8.18675 69.6719 8.25437C69.7569 8.33672 69.8038 8.4475 69.8021 8.56238C69.8005 8.67726 69.7506 8.78683 69.6633 8.86702L67.0272 11.2892L67.65 14.7095C67.6646 14.7891 67.6552 14.8709 67.623 14.9457C67.5908 15.0206 67.537 15.0854 67.4676 15.1328C67.3983 15.1803 67.3163 15.2085 67.2308 15.2142C67.1454 15.22 67.0599 15.203 66.9841 15.1653L63.7252 13.5505L60.4663 15.1653C60.3774 15.2099 60.274 15.2248 60.175 15.2086C59.9253 15.168 59.7574 14.9449 59.8005 14.7095L60.4233 11.2892L57.7872 8.86702C57.7154 8.80076 57.6681 8.7142 57.6537 8.61953C57.615 8.38285 57.7901 8.16376 58.0412 8.12859Z" fill="#FEAC0C"/>
<path d="M77.0971 8.12859L80.7406 7.62955L82.3693 4.51759C82.4138 4.43239 82.487 4.36342 82.5774 4.32149C82.8041 4.216 83.0796 4.30391 83.193 4.51759L84.8217 7.62955L88.4652 8.12859C88.5657 8.14212 88.6575 8.18675 88.7278 8.25437C88.8128 8.33672 88.8597 8.4475 88.8581 8.56238C88.8564 8.67726 88.8065 8.78683 88.7192 8.86702L86.0831 11.2892L86.7059 14.7095C86.7205 14.7891 86.7112 14.8709 86.6789 14.9457C86.6467 15.0206 86.5929 15.0854 86.5235 15.1328C86.4542 15.1803 86.3722 15.2085 86.2867 15.2142C86.2013 15.22 86.1158 15.203 86.04 15.1653L82.7811 13.5505L79.5222 15.1653C79.4333 15.2099 79.33 15.2248 79.2309 15.2086C78.9812 15.168 78.8134 14.9449 78.8564 14.7095L79.4792 11.2892L76.8431 8.86702C76.7713 8.80076 76.724 8.7142 76.7096 8.61953C76.6709 8.38285 76.846 8.16376 77.0971 8.12859Z" fill="#FEAC0C"/>
<path d="M138.585 19.6783H134.115V18.5819H144.275V19.6783H139.804V31.5127H138.585V19.6783Z" fill="#F8F8F8"/>
<path d="M146.288 18.5818H154.286V19.6782H147.506V24.2808H153.861V25.3771H147.506V30.4183H154.581V31.5146H146.286V18.5818H146.288Z" fill="#F8F8F8"/>
<path d="M161.25 18.5818H162.507L168.012 31.5126H166.644L165.222 28.078H158.295L156.817 31.5126H155.542L161.25 18.5818ZM161.825 19.8975L158.776 26.9837H164.78L161.825 19.8975Z" fill="#F8F8F8"/>
<path d="M169.767 18.5818H171.596L176.361 29.4305L181.126 18.5818H182.863V31.5126H181.644V20.1147H181.607L176.62 31.5105H176.085L171.024 20.1147H170.986V31.5105H169.767V18.5818Z" fill="#F8F8F8"/>
<path d="M3.26921 37.0844V38.7616H2.57295V37.0702L0.62384 33.9086H1.3735L2.9447 36.4671L4.52206 33.9086H5.21627L3.26921 37.0844Z" fill="#F8F8F8"/>
<path d="M6.4238 36.3342C6.4238 34.9128 7.53288 33.8508 9.04041 33.8508C10.5336 33.8508 11.6427 34.9047 11.6427 36.3342C11.6427 37.7617 10.5336 38.8176 9.04041 38.8176C7.53083 38.8176 6.4238 37.7556 6.4238 36.3342ZM10.9402 36.3342C10.9402 35.26 10.1269 34.4681 9.04041 34.4681C7.93955 34.4681 7.12622 35.258 7.12622 36.3342C7.12622 37.4104 7.93955 38.2003 9.04041 38.2003C10.1269 38.2003 10.9402 37.4104 10.9402 36.3342Z" fill="#F8F8F8"/>
<path d="M13.8342 36.6676V33.9081H14.5366V36.6412C14.5366 37.7154 15.0337 38.2007 15.9189 38.2007C16.8041 38.2007 17.3073 37.7154 17.3073 36.6412V33.9081H17.9871V36.6676C17.9871 38.0748 17.2087 38.818 15.9106 38.818C14.6208 38.818 13.8342 38.0748 13.8342 36.6676Z" fill="#F8F8F8"/>
<path d="M23.8282 38.7611L22.7684 37.2707C22.6698 37.2768 22.5651 37.2849 22.4603 37.2849H21.2465V38.7611H20.5441V33.9081H22.4583C23.7358 33.9081 24.506 34.5457 24.506 35.5995C24.506 36.3488 24.1137 36.8889 23.4256 37.1326L24.5902 38.7631H23.8282V38.7611ZM23.8076 35.5995C23.8076 34.9051 23.3373 34.5111 22.4398 34.5111H21.2465V36.696H22.4398C23.3373 36.696 23.8076 36.294 23.8076 35.5995Z" fill="#F8F8F8"/>
<path d="M34.3235 33.9081L32.171 38.7611H31.4768L29.3162 33.9081H30.074L31.8424 37.8961L33.6231 33.9081H34.3235Z" fill="#F8F8F8"/>
<path d="M38.9815 37.5482H36.3731L35.8329 38.7625H35.11L37.3343 33.9095H38.0285L40.259 38.7625H39.5216L38.9815 37.5482ZM38.735 36.9939L37.6752 34.6161L36.6154 36.9939H38.735Z" fill="#F8F8F8"/>
<path d="M42.169 33.9081H42.8715V38.158H45.5291V38.7611H42.169V33.9081Z" fill="#F8F8F8"/>
<path d="M47.4762 33.9081H48.1786V38.158H50.8363V38.7611H47.4762V33.9081Z" fill="#F8F8F8"/>
<path d="M56.3447 38.158V38.7611H52.7812V33.9081H56.2461V34.5111H53.4816V36.0016H55.9442V36.5904H53.4816V38.158H56.3447Z" fill="#F8F8F8"/>
<path d="M60.6784 37.0839V38.7611H59.9842V37.0697L58.0351 33.9081H58.7848L60.356 36.4666L61.9333 33.9081H62.6275L60.6784 37.0839Z" fill="#F8F8F8"/>
<path d="M74.6858 33.9081L73.0448 38.7611H72.3075L70.9683 34.8848L69.6292 38.7611H68.8796L67.2385 33.9081H67.9615L69.2862 37.8535L70.6685 33.9081H71.3134L72.6669 37.8738L74.0204 33.9081H74.6858Z" fill="#F8F8F8"/>
<path d="M76.7191 33.9081H77.4215V38.7611H76.7191V33.9081Z" fill="#F8F8F8"/>
<path d="M80.0011 33.9081H82.0693C83.6467 33.9081 84.7209 34.8929 84.7209 36.3346C84.7209 37.7763 83.6488 38.7611 82.0693 38.7611H80.0011V33.9081ZM82.0283 38.158C83.2421 38.158 84.0205 37.423 84.0205 36.3346C84.0205 35.2462 83.2421 34.5111 82.0283 34.5111H80.7035V38.158H82.0283Z" fill="#F8F8F8"/>
<path d="M90.5294 38.158V38.7611H86.9659V33.9081H90.4308V34.5111H87.6663V36.0016H90.1289V36.5904H87.6663V38.158H90.5294Z" fill="#F8F8F8"/>
<path d="M99.3629 38.7611L98.3031 37.2707C98.2045 37.2768 98.0998 37.2849 97.995 37.2849H96.7812V38.7611H96.0788V33.9081H97.993C99.2705 33.9081 100.041 34.5457 100.041 35.5995C100.041 36.3488 99.6484 36.8889 98.9603 37.1326L100.125 38.7631H99.3629V38.7611ZM99.3403 35.5995C99.3403 34.9051 98.87 34.5111 97.9724 34.5111H96.7812V36.696H97.9724C98.872 36.696 99.3403 36.294 99.3403 35.5995Z" fill="#F8F8F8"/>
<path d="M105.906 38.158V38.7611H102.343V33.9081H105.808V34.5111H103.045V36.0016H105.508V36.5904H103.045V38.158H105.906Z" fill="#F8F8F8"/>
<path d="M111.528 37.5482H108.919L108.379 38.7625H107.656L109.881 33.9095H110.575L112.805 38.7625H112.068L111.528 37.5482ZM111.281 36.9939L110.222 34.6161L109.162 36.9939H111.281Z" fill="#F8F8F8"/>
<path d="M114.718 33.9081H115.42V38.158H118.078V38.7611H114.718V33.9081Z" fill="#F8F8F8"/>
<path d="M126.86 38.158V38.7611H123.296V33.9081H126.761V34.5111H123.999V36.0016H126.461V36.5904H123.999V38.158H126.86Z" fill="#F8F8F8"/>
<path d="M128.75 38.2062L129.008 37.6661C129.374 37.991 129.996 38.2286 130.629 38.2286C131.477 38.2286 131.843 37.9037 131.843 37.4793C131.843 36.2934 128.869 37.0427 128.869 35.2396C128.869 34.4903 129.458 33.8527 130.748 33.8527C131.323 33.8527 131.919 34.005 132.325 34.2832L132.093 34.8375C131.666 34.5675 131.181 34.4416 130.746 34.4416C129.912 34.4416 129.553 34.7888 129.553 35.2111C129.553 36.397 132.527 35.6558 132.527 37.4367C132.527 38.1778 131.923 38.8174 130.627 38.8174C129.879 38.8174 129.142 38.5677 128.75 38.2062Z" fill="#F8F8F8"/>
<path d="M135.813 34.5111H134.128V33.9081H138.189V34.5111H136.505V38.7611H135.811V34.5111H135.813Z" fill="#F8F8F8"/>
<path d="M142.755 37.5482H140.146L139.606 38.7625H138.883L141.107 33.9095H141.802L144.032 38.7625H143.295L142.755 37.5482ZM142.508 36.9939L141.448 34.6161L140.389 36.9939H142.508Z" fill="#F8F8F8"/>
<path d="M146.408 34.5111H144.724V33.9081H148.785V34.5111H147.101V38.7611H146.406V34.5111H146.408Z" fill="#F8F8F8"/>
<path d="M154.277 38.158V38.7611H150.713V33.9081H154.178V34.5111H151.416V36.0016H153.878V36.5904H151.416V38.158H154.277Z" fill="#F8F8F8"/>
<path d="M160.8 34.5111H159.116V33.9081H163.176V34.5111H161.492V38.7611H160.798V34.5111H160.8Z" fill="#F8F8F8"/>
<path d="M168.668 38.158V38.7611H165.105V33.9081H168.57V34.5111H165.807V36.0016H168.27V36.5904H165.807V38.158H168.668Z" fill="#F8F8F8"/>
<path d="M174.29 37.5482H171.681L171.141 38.7625H170.418L172.642 33.9095H173.337L175.567 38.7625H174.83L174.29 37.5482ZM174.045 36.9939L172.985 34.6161L171.926 36.9939H174.045Z" fill="#F8F8F8"/>
<path d="M182.031 38.7608L182.024 35.2235L180.25 38.1699H179.927L178.153 35.2438V38.7588H177.479V33.9057H178.054L180.102 37.3171L182.121 33.9057H182.696L182.702 38.7588H182.031V38.7608Z" fill="#F8F8F8"/>
<path fill-rule="evenodd" clip-rule="evenodd" d="M105.214 7.40536C107.016 7.3836 108.239 8.01082 108.773 9.25492C108.908 9.56996 108.973 9.92469 109.056 10.2915C109.132 10.6281 109.127 11.2667 109.056 11.5923C109.049 11.7007 109.042 11.8091 109.036 11.9175C108.972 12.1858 108.932 12.4673 108.833 12.7101C108.385 13.8105 107.585 14.3639 106.326 14.6613C105.928 14.7552 105.221 14.7495 104.829 14.6613C104.458 14.5777 104.148 14.5853 103.838 14.4581C102.958 14.0967 102.349 13.4385 102.018 12.5272C101.691 11.6248 101.775 10.138 102.119 9.33622C102.483 8.48827 103.17 7.88761 104.081 7.58829C104.339 7.50351 104.632 7.48707 104.91 7.42569C105.01 7.40378 105.143 7.4492 105.214 7.40536ZM95.1022 7.52731H97.4884C97.803 8.08976 98.1618 8.6491 98.4996 9.19395C98.5958 9.34907 98.7807 9.81577 98.9243 9.88499V9.86467C99.0735 9.70115 99.1489 9.46795 99.268 9.27525C99.4995 8.90095 99.7439 8.51103 99.9758 8.13706C100.044 8.02641 100.233 7.57361 100.32 7.52731H102.726V7.54764C102.616 7.63802 102.564 7.79223 102.483 7.91348C102.27 8.23569 102.054 8.56088 101.836 8.88908C101.415 9.52524 100.988 10.1573 100.562 10.7996C100.416 11.0202 100.268 11.2438 100.117 11.4703C100.09 11.5115 100.014 11.5679 99.9961 11.6126V14.58H97.812V11.6126C97.7342 11.5488 97.7073 11.4548 97.6502 11.3687C97.5042 11.1482 97.3559 10.9246 97.2053 10.698C96.7444 10.0019 96.2756 9.30777 95.81 8.60453C95.6446 8.35478 95.4736 8.10809 95.3044 7.85251C95.2366 7.75001 95.13 7.66959 95.1022 7.52731ZM109.521 7.52731H111.685V10.9419C111.685 11.6505 111.654 12.2935 111.948 12.6898C112.094 12.8878 112.648 13.1545 113.08 13.0557C113.448 12.9715 113.738 12.8443 113.909 12.5679C114.128 12.2146 114.071 11.5523 114.071 10.9825V7.52731H116.235C116.322 7.79219 116.255 8.53183 116.255 8.86875V11.8565C116.215 11.9236 116.256 12.0462 116.235 12.141C116.201 12.324 116.167 12.5069 116.134 12.6898C115.922 13.345 115.587 13.8582 115.082 14.2142C114.781 14.4261 114.401 14.5382 113.99 14.641L113.525 14.6817C113.183 14.7555 112.589 14.7312 112.271 14.6613C111.947 14.5902 111.663 14.6308 111.381 14.5394C110.728 14.3268 110.234 13.9171 109.905 13.3809C109.528 12.7675 109.521 11.8798 109.521 10.8809V7.52731ZM116.963 7.52731H120.199C121.162 7.52731 122.069 7.54861 122.625 7.95413C123.218 8.38675 123.528 9.51451 123.131 10.3931C122.876 10.9553 122.312 11.3297 121.634 11.4703V11.4907C122.567 11.6259 123.031 12.9657 123.414 13.7061C123.556 13.9817 123.773 14.266 123.859 14.58H121.412C121.307 14.3399 121.16 14.1065 121.028 13.889C120.774 13.4712 120.588 13.0176 120.34 12.6085C120.179 12.3437 120.093 12.0187 119.834 11.8565C119.659 11.7463 119.442 11.7311 119.147 11.7346V14.58H116.963V7.52731ZM119.147 8.97038V10.3931C119.929 10.4068 120.785 10.4634 121.048 9.94597C121.082 9.87906 121.149 9.73412 121.129 9.62077C120.981 8.78432 120.091 8.95727 119.147 8.97038ZM105.234 9.072L104.89 9.1533C104.506 9.3159 104.234 9.65264 104.101 10.0679C103.865 10.806 103.978 12.0599 104.324 12.5475C104.438 12.709 104.606 12.8181 104.789 12.9134C104.956 13.0004 105.286 13.1404 105.578 13.076C106.056 12.9703 106.41 12.8613 106.629 12.5069C106.752 12.3081 106.812 12.0287 106.872 11.7752C106.879 11.6465 106.885 11.5178 106.892 11.389C106.933 11.1969 106.934 10.829 106.892 10.637C106.85 10.445 106.885 10.2959 106.831 10.1289C106.604 9.42281 106.184 9.06228 105.234 9.072Z" fill="#F8F8F8"/>
<path fill-rule="evenodd" clip-rule="evenodd" d="M138.475 5.77713H139.322V5.79967C139.208 5.92669 139.169 6.09793 139.077 6.25043C138.845 6.63546 138.647 7.05011 138.408 7.44493C137.698 8.62042 137.068 9.87499 136.358 11.051C136.049 11.5642 135.794 12.1031 135.489 12.6061C135.402 12.7496 135.347 13.0258 135.199 13.1019C135.125 12.8051 134.861 12.5135 134.709 12.268C134.342 11.6735 134.047 11.063 133.684 10.465C133.495 10.1531 133.199 9.81123 133.082 9.4508H133.238C133.383 9.54075 133.891 9.52556 134.085 9.56349C134.407 10.24 134.949 10.7907 135.289 11.4567C135.306 11.4337 135.297 11.4505 135.311 11.4116C135.456 11.2587 135.51 11.0352 135.623 10.8481C135.886 10.4116 136.111 9.9424 136.381 9.49588C136.818 8.77212 137.186 7.99952 137.628 7.26463C137.916 6.78644 138.23 6.28827 138.475 5.77713Z" fill="#D02030"/>
<path fill-rule="evenodd" clip-rule="evenodd" d="M134.771 7.40618C135.825 7.3841 136.456 7.62012 137.063 8.01409V8.05602C136.923 8.17131 136.732 8.59222 136.643 8.76875C136.372 8.62842 136.147 8.41416 135.822 8.30757C134.664 7.92706 133.495 8.59417 133.088 9.25089C132.338 10.4613 132.625 12.6844 133.593 13.4015C133.835 13.5835 134.105 13.7251 134.392 13.8207C134.619 13.8933 135 13.9398 135.254 13.8836C135.534 13.822 135.744 13.8499 135.97 13.7578C136.78 13.4267 137.21 12.787 137.442 11.8712C137.533 11.5112 137.552 10.7817 137.463 10.4038C137.433 10.2781 137.292 9.8331 137.316 9.77495C137.388 9.49843 137.703 9.09826 137.842 8.83163L137.884 8.8526C138.076 9.23506 138.259 9.61928 138.388 10.0894C138.515 10.5504 138.524 11.3339 138.409 11.8083C138.366 11.9892 138.379 12.1247 138.325 12.2905C137.987 13.3305 137.428 14.0203 136.453 14.4286C136.03 14.606 135.219 14.8305 134.56 14.6802C134.219 14.6022 133.905 14.5345 133.614 14.4077C132.706 14.0127 132.189 13.242 131.868 12.2485C131.755 11.8985 131.619 11.3145 131.721 10.844V10.5506C131.777 10.2957 131.789 10.019 131.868 9.77495C132.01 9.33717 132.209 8.93594 132.457 8.60105C132.8 8.13905 133.34 7.78902 133.929 7.57388C134.124 7.50282 134.354 7.47435 134.56 7.42714C134.637 7.40972 134.72 7.43737 134.771 7.40618ZM124.401 7.63677H126.589V10.0894H128.966V7.63677H131.174V14.6802H128.966V11.8293H126.589V14.6802H124.401V7.63677ZM138.956 7.63677H141.859C141.876 7.97252 142.021 8.32455 142.111 8.62201C142.317 9.29988 142.437 9.99632 142.637 10.6554C142.731 10.9635 142.78 11.2664 142.868 11.5568C142.903 11.6697 142.889 11.7914 142.953 11.8712V11.8502C143.091 11.6396 143.139 11.0635 143.226 10.7812C143.453 10.0419 143.597 9.23022 143.836 8.49623C143.912 8.26317 143.919 7.83319 144.046 7.65773C144.152 7.59247 144.674 7.63677 144.846 7.63677H146.928V14.6802H145.119V9.81688C145.119 9.7011 145.146 9.49615 145.098 9.41859C145.056 9.83994 144.861 10.4063 144.74 10.8021C144.501 11.5909 144.378 12.4065 144.13 13.1709C144.015 13.5277 143.96 13.9029 143.857 14.24C143.815 14.3783 143.829 14.5542 143.752 14.6592C143.664 14.7144 143.419 14.6802 143.289 14.6802H142.132C142.125 14.6733 142.118 14.6662 142.111 14.6592C142.104 14.5045 142.045 14.3664 142.006 14.24C141.913 13.9329 141.863 13.6291 141.775 13.3386C141.518 12.4951 141.388 11.6211 141.123 10.8021C141.016 10.4724 140.97 10.1252 140.87 9.81688C140.826 9.67852 140.843 9.50357 140.765 9.39762V14.6802H138.956V7.63677ZM147.727 7.63677H153.595V9.12511C153.332 9.21152 152.758 9.14607 152.439 9.14607H149.915V10.2571H153.322V11.7035H149.915V13.087H153.701V14.6802H147.727V7.63677Z" fill="#0071BA"/>
<path fill-rule="evenodd" clip-rule="evenodd" d="M160.858 9.14461L158.644 9.26908C158.618 8.78633 158.31 8.45958 157.919 8.33552C157.304 8.14052 156.684 8.38137 156.698 8.99939C156.783 9.08569 156.82 9.20228 156.926 9.26908C157.317 9.51575 158.11 9.54521 158.602 9.70474C159.526 10.0041 160.33 10.2568 160.796 11.0117C160.943 11.2503 161.212 11.837 161.106 12.298C161.041 12.583 160.997 12.8394 160.899 13.0655C160.739 13.4392 160.52 13.7921 160.216 14.0198C158.893 15.0144 155.814 15.0169 154.856 13.6879C154.583 13.3091 154.458 13.0425 154.318 12.5054C154.297 12.426 154.211 12.1494 154.256 12.0905C154.385 12.0108 154.598 12.087 154.773 12.049L156.47 11.9245C156.538 12.5842 156.85 13.038 157.422 13.19C158.11 13.3728 159.035 12.9492 158.809 12.2565C158.605 11.6312 157.756 11.621 157.112 11.4266C156.082 11.1159 155.088 10.8163 154.691 9.87071C154.581 9.6091 154.449 9.1666 154.546 8.77119L154.67 8.33552C154.988 7.6003 155.622 7.21609 156.45 6.98705C156.699 6.91797 156.936 6.9634 157.216 6.90407C157.474 6.8493 157.972 6.84723 158.23 6.90407C158.557 6.97627 158.835 6.93581 159.12 7.02855C160.115 7.3528 160.722 7.96272 160.858 9.14461ZM164.811 6.88333C166.556 6.863 167.715 7.21775 168.433 8.21105C168.575 8.40814 168.744 8.61559 168.847 8.85417C168.978 9.15913 169.053 9.5033 169.137 9.84996C169.204 10.1284 169.24 10.7221 169.178 11.0117V11.3437C169.109 11.6594 169.107 11.9845 169.012 12.2772C168.615 13.5049 167.804 14.2495 166.529 14.6007C166.251 14.6775 165.943 14.704 165.618 14.7045C163.3 14.7072 162.124 13.9852 161.562 12.2357C161.279 11.3559 161.287 9.93108 161.624 9.10312C161.999 8.18242 162.631 7.52852 163.549 7.15302C163.82 7.04182 164.138 6.99494 164.439 6.92482C164.56 6.8964 164.718 6.941 164.811 6.88333ZM169.571 7.0078H171.91V12.7129H175.552V14.58H169.571V7.0078ZM176.028 7.0078H178.864C179.747 7.0078 180.551 7.01257 181.161 7.27749C181.887 7.59262 182.391 8.21478 182.693 8.9579C182.795 9.21099 182.808 9.45393 182.879 9.74623C182.989 10.2022 183.053 10.9514 182.941 11.4681C182.934 11.5926 182.927 11.7171 182.92 11.8415C182.818 12.2814 182.732 12.7071 182.527 13.0448C182.2 13.5836 181.733 14.0597 181.12 14.3103C180.417 14.5976 179.483 14.58 178.491 14.58H176.028V7.0078ZM164.977 8.66746C164.859 8.7021 164.742 8.73668 164.625 8.77119C164.29 8.93506 164.025 9.21511 163.88 9.55952C163.784 9.78814 163.771 10.0643 163.714 10.3271V10.742C163.668 10.9679 163.722 11.3812 163.776 11.5926C163.839 11.8382 163.848 12.0459 163.962 12.2357C164.21 12.6477 164.846 13.1207 165.597 12.9411C165.912 12.866 166.258 12.7305 166.425 12.5054C166.87 11.9071 167.031 10.3864 166.674 9.53878C166.408 8.90811 165.899 8.65854 164.977 8.66746ZM178.367 8.72969V12.8581C179.1 12.8653 179.94 12.9033 180.25 12.4847C180.781 11.7696 180.762 9.84063 180.23 9.14461C179.905 8.71974 179.125 8.72305 178.367 8.72969Z" fill="#B11F29"/>
<path fill-rule="evenodd" clip-rule="evenodd" d="M129.013 6.86212H131.126L141.057 0.857025L144.262 4.35411L143.593 4.49541L141.515 6.43823H145.424L148.1 4.03619L150.319 6.8268H150.988L148.065 3.22374L144.684 4.00087L141.127 0.079895L134.824 2.83517L134.718 0.962997L133.627 0.927673L132.958 1.35156L133.028 3.57698L132.148 3.96554L129.013 6.86212Z" fill="#54585A"/>
</svg>
