<svg width="565" height="48" viewBox="0 0 565 48" fill="none" xmlns="http://www.w3.org/2000/svg">
<path d="M13.9322 21.4642C13.5047 20.9521 12.9805 20.5572 12.3596 20.2827C11.7386 20.0081 11.021 19.8693 10.2034 19.8693C9.38592 19.8693 8.6308 20.0266 7.93809 20.3382C7.24226 20.6498 6.64004 21.0847 6.13143 21.6431C5.6197 22.2015 5.22341 22.8678 4.93635 23.636C4.64928 24.4072 4.50574 25.2402 4.50574 26.1379C4.50574 27.0541 4.64928 27.8932 4.93635 28.6521C5.22341 29.4141 5.61658 30.0743 6.11895 30.6327C6.6182 31.191 7.20794 31.626 7.88505 31.9376C8.56216 32.2492 9.28919 32.4065 10.0693 32.4065C10.9586 32.4065 11.748 32.2245 12.4345 31.8574C13.1209 31.4903 13.6857 30.9782 14.1319 30.318L17.7484 32.9834C16.9153 34.1372 15.8575 34.9917 14.5781 35.5408C13.2988 36.0899 11.982 36.3645 10.6278 36.3645C9.08949 36.3645 7.66975 36.1269 6.37169 35.6488C5.07364 35.1737 3.95344 34.4888 3.00799 33.6004C2.06253 32.7119 1.32614 31.6353 0.795681 30.3704C0.265227 29.1056 0 27.6958 0 26.1379C0 24.58 0.265227 23.1702 0.792561 21.9023C1.3199 20.6374 2.05941 19.5608 3.00487 18.6723C3.95032 17.7839 5.07052 17.1021 6.36857 16.6239C7.66663 16.1488 9.08325 15.9082 10.6247 15.9082C11.1801 15.9082 11.7605 15.9606 12.3627 16.0594C12.9649 16.1612 13.5578 16.3216 14.1413 16.5406C14.7248 16.7596 15.2864 17.0527 15.8231 17.4198C16.3598 17.7869 16.8435 18.2343 17.2678 18.768L13.9322 21.4642Z" fill="#161F1E"/>
<path d="M26.5853 16.4043H30.1736L38.7389 35.8703H33.8431L32.1457 31.7457H24.5009L22.8596 35.8703H18.0762L26.5853 16.4043ZM28.2547 22.0683L25.8614 28.1178H30.6729L28.2547 22.0683Z" fill="#161F1E"/>
<path d="M40.7139 16.4043H48.3337C49.3353 16.4043 50.2839 16.4999 51.1825 16.6943C52.0812 16.8855 52.8706 17.2064 53.5477 17.6568C54.2249 18.1072 54.7616 18.7118 55.161 19.4707C55.5604 20.2327 55.7601 21.1798 55.7601 22.3151C55.7601 23.6909 55.3981 24.857 54.6742 25.8196C53.9503 26.7821 52.8956 27.3929 51.5039 27.6489L56.5089 35.8703H51.3074L47.1917 28.0901H45.0511V35.8703H40.7139V16.4043ZM45.0511 24.4591H47.6098C47.9998 24.4591 48.4117 24.4467 48.8485 24.419C49.2854 24.3912 49.6785 24.3079 50.0311 24.1722C50.3837 24.0334 50.6739 23.8205 50.908 23.5274C51.1389 23.2344 51.2543 22.821 51.2543 22.2904C51.2543 21.7968 51.1513 21.4019 50.9485 21.1088C50.7457 20.8158 50.4836 20.5906 50.1684 20.4363C49.8533 20.2821 49.4913 20.1741 49.0826 20.1186C48.6738 20.063 48.2775 20.0353 47.8875 20.0353H45.0511V24.4591Z" fill="#161F1E"/>
<path d="M57.6763 26.1379C57.6763 24.58 57.9415 23.1702 58.4688 21.9023C58.9962 20.6374 59.7357 19.5608 60.6811 18.6723C61.6266 17.7839 62.7468 17.1021 64.0448 16.6239C65.3429 16.1488 66.7595 15.9082 68.301 15.9082C69.8393 15.9082 71.259 16.1457 72.5571 16.6239C73.8551 17.1021 74.9753 17.7839 75.9208 18.6723C76.8662 19.5608 77.6026 20.6374 78.1331 21.9023C78.6604 23.1671 78.9256 24.58 78.9256 26.1379C78.9256 27.6958 78.6604 29.1056 78.1331 30.3704C77.6057 31.6353 76.8662 32.7119 75.9208 33.6004C74.9753 34.4888 73.852 35.1706 72.5571 35.6488C71.259 36.1239 69.8393 36.3645 68.301 36.3645C66.7626 36.3645 65.3429 36.1269 64.0448 35.6488C62.7468 35.1737 61.6266 34.4888 60.6811 33.6004C59.7357 32.7119 58.9993 31.6353 58.4688 30.3704C57.9415 29.1056 57.6763 27.6958 57.6763 26.1379ZM62.182 26.1379C62.182 27.0541 62.3255 27.8932 62.6126 28.6521C62.8997 29.4141 63.3116 30.0743 63.8514 30.6327C64.3881 31.191 65.034 31.626 65.7829 31.9376C66.5349 32.2492 67.3711 32.4065 68.301 32.4065C69.2277 32.4065 70.0671 32.2523 70.8191 31.9376C71.5711 31.626 72.2138 31.191 72.7505 30.6327C73.2872 30.0743 73.6991 29.4141 73.9893 28.6521C74.2764 27.8932 74.4199 27.0541 74.4199 26.1379C74.4199 25.2402 74.2764 24.4041 73.9893 23.636C73.7022 22.8648 73.2903 22.2015 72.7505 21.6431C72.2138 21.0847 71.5679 20.6498 70.8191 20.3382C70.0671 20.0266 69.2277 19.8693 68.301 19.8693C67.3742 19.8693 66.5349 20.0266 65.7829 20.3382C65.0309 20.6498 64.3881 21.0847 63.8514 21.6431C63.3147 22.2015 62.8997 22.8678 62.6126 23.636C62.3255 24.4041 62.182 25.2402 62.182 26.1379Z" fill="#161F1E"/>
<path d="M82.0361 16.4043H86.3734V31.9123H94.4113V35.8703H82.0361V16.4043Z" fill="#161F1E"/>
<path d="M105.033 16.4043H112.653C113.654 16.4043 114.603 16.4999 115.501 16.6943C116.4 16.8855 117.189 17.2064 117.867 17.6568C118.544 18.1072 119.08 18.7118 119.48 19.4707C119.879 20.2327 120.079 21.1798 120.079 22.3151C120.079 23.6909 119.717 24.857 118.993 25.8196C118.269 26.7821 117.214 27.3929 115.823 27.6489L120.828 35.8703H115.626L111.511 28.0901H109.37V35.8703H105.033V16.4043ZM109.373 24.4591H111.932C112.322 24.4591 112.734 24.4467 113.171 24.419C113.607 24.3912 114.001 24.3079 114.353 24.1722C114.706 24.0334 114.996 23.8205 115.23 23.5274C115.461 23.2344 115.576 22.821 115.576 22.2904C115.576 21.7968 115.473 21.4019 115.27 21.1088C115.068 20.8158 114.806 20.5906 114.49 20.4363C114.175 20.2821 113.813 20.1741 113.405 20.1186C112.996 20.063 112.599 20.0353 112.209 20.0353H109.373V24.4591Z" fill="#161F1E"/>
<path d="M121.998 26.1379C121.998 24.58 122.263 23.1702 122.791 21.9023C123.318 20.6374 124.057 19.5608 125.003 18.6723C125.948 17.7839 127.069 17.1021 128.367 16.6239C129.665 16.1488 131.081 15.9082 132.623 15.9082C134.161 15.9082 135.581 16.1457 136.879 16.6239C138.177 17.1021 139.297 17.7839 140.243 18.6723C141.188 19.5608 141.924 20.6374 142.452 21.9023C142.979 23.1671 143.244 24.58 143.244 26.1379C143.244 27.6958 142.979 29.1056 142.452 30.3704C141.924 31.6353 141.188 32.7119 140.243 33.6004C139.297 34.4888 138.174 35.1706 136.879 35.6488C135.581 36.1239 134.164 36.3645 132.623 36.3645C131.084 36.3645 129.665 36.1269 128.367 35.6488C127.069 35.1737 125.948 34.4888 125.003 33.6004C124.057 32.7119 123.321 31.6353 122.791 30.3704C122.263 29.1056 121.998 27.6958 121.998 26.1379ZM126.504 26.1379C126.504 27.0541 126.647 27.8932 126.934 28.6521C127.221 29.4141 127.633 30.0743 128.173 30.6327C128.71 31.191 129.356 31.626 130.105 31.9376C130.857 32.2492 131.693 32.4065 132.623 32.4065C133.549 32.4065 134.389 32.2523 135.141 31.9376C135.893 31.626 136.536 31.191 137.072 30.6327C137.609 30.0743 138.021 29.4141 138.311 28.6521C138.598 27.8932 138.742 27.0541 138.742 26.1379C138.742 25.2402 138.598 24.4041 138.311 23.636C138.024 22.8648 137.612 22.2015 137.072 21.6431C136.536 21.0847 135.89 20.6498 135.141 20.3382C134.389 20.0266 133.553 19.8693 132.623 19.8693C131.696 19.8693 130.857 20.0266 130.105 20.3382C129.353 20.6498 128.71 21.0847 128.173 21.6431C127.636 22.2015 127.221 22.8678 126.934 23.636C126.647 24.4041 126.504 25.2402 126.504 26.1379Z" fill="#161F1E"/>
<path d="M151.03 27.5656L143.631 16.4043H149.026L153.198 23.6909L157.62 16.4043H162.765L155.367 27.5656V35.8703H151.03V27.5656Z" fill="#161F1E"/>
<path d="M173.945 21.1619C173.593 20.7207 173.115 20.3968 172.513 20.187C171.911 19.9772 171.34 19.8693 170.803 19.8693C170.488 19.8693 170.163 19.9063 169.829 19.9803C169.496 20.0544 169.18 20.1685 168.884 20.3228C168.588 20.4801 168.347 20.6837 168.16 20.9398C167.976 21.1958 167.882 21.5074 167.882 21.8745C167.882 22.4606 168.104 22.911 168.55 23.2226C168.996 23.5342 169.555 23.7995 170.232 24.0185C170.909 24.2376 171.636 24.4597 172.416 24.6787C173.196 24.8977 173.923 25.2093 174.6 25.6134C175.277 26.0176 175.839 26.5574 176.282 27.2361C176.728 27.9148 176.95 28.8218 176.95 29.9571C176.95 31.0399 176.747 31.9839 176.338 32.789C175.93 33.5973 175.38 34.2636 174.685 34.7973C173.989 35.3279 173.184 35.7228 172.266 35.9789C171.349 36.2349 170.379 36.3645 169.361 36.3645C168.082 36.3645 166.896 36.1732 165.801 35.7876C164.706 35.402 163.689 34.7788 162.743 33.9181L165.829 30.5648C166.275 31.1509 166.834 31.6044 167.511 31.9253C168.188 32.2461 168.887 32.4065 169.611 32.4065C169.964 32.4065 170.319 32.3664 170.681 32.2831C171.043 32.1998 171.368 32.0764 171.655 31.9129C171.942 31.7463 172.173 31.5365 172.351 31.2805C172.525 31.0244 172.616 30.7221 172.616 30.3735C172.616 29.7874 172.388 29.3246 171.936 28.9853C171.48 28.646 170.912 28.356 170.226 28.1184C169.539 27.8809 168.797 27.6433 168.001 27.4027C167.202 27.1652 166.463 26.8443 165.776 26.4402C165.09 26.0361 164.519 25.5055 164.066 24.8453C163.611 24.1851 163.386 23.3152 163.386 22.2323C163.386 21.1865 163.595 20.2703 164.01 19.4837C164.428 18.697 164.984 18.0368 165.679 17.5031C166.375 16.9725 167.177 16.5715 168.085 16.3062C168.993 16.0409 169.929 15.9082 170.893 15.9082C172.004 15.9082 173.081 16.0655 174.12 16.3771C175.159 16.6887 176.095 17.2101 176.928 17.9443L173.945 21.1619Z" fill="#161F1E"/>
<path d="M180.342 16.4043H193.719V20.3623H184.68V23.9902H193.217V27.9482H184.68V31.9062H194.218V35.8641H180.342V16.4043Z" fill="#161F1E"/>
<path d="M0.329431 3.22805L3.38294 2.80981L4.74794 0.201757C4.78522 0.13035 4.84656 0.0725445 4.92233 0.0374078C5.11234 -0.0510007 5.34325 0.022673 5.43826 0.201757L6.80326 2.80981L9.85677 3.22805C9.94096 3.23938 10.0179 3.27678 10.0769 3.33346C10.1481 3.40247 10.1874 3.49531 10.186 3.59159C10.1846 3.68786 10.1428 3.7797 10.0696 3.8469L7.86038 5.8769L8.38233 8.74337C8.39457 8.81005 8.38674 8.87863 8.35973 8.94133C8.33272 9.00403 8.28761 9.05834 8.22951 9.09811C8.17142 9.13788 8.10266 9.16151 8.03104 9.16632C7.95942 9.17113 7.8878 9.15694 7.8243 9.12534L5.0931 7.77201L2.3619 9.12534C2.28733 9.16275 2.20074 9.17521 2.11776 9.16161C1.9085 9.12761 1.76779 8.94059 1.80387 8.74337L2.32582 5.8769L0.116563 3.8469C0.0564308 3.79137 0.0167437 3.71883 0.00471687 3.63949C-0.0277538 3.44113 0.118968 3.25752 0.329431 3.22805Z" fill="#FEAC0C"/>
<path d="M16.2996 3.22805L19.3532 2.80981L20.7182 0.201757C20.7554 0.13035 20.8168 0.0725445 20.8925 0.0374078C21.0826 -0.0510007 21.3135 0.022673 21.4085 0.201757L22.7735 2.80981L25.827 3.22805C25.9112 3.23938 25.9881 3.27678 26.0471 3.33346C26.1183 3.40247 26.1576 3.49531 26.1562 3.59159C26.1549 3.68786 26.113 3.7797 26.0399 3.8469L23.8306 5.8769L24.3525 8.74337C24.3648 8.81005 24.357 8.87863 24.3299 8.94133C24.3029 9.00403 24.2578 9.05834 24.1997 9.09811C24.1416 9.13788 24.0729 9.16151 24.0013 9.16632C23.9296 9.17113 23.858 9.15694 23.7945 9.12534L21.0633 7.77201L18.3321 9.12534C18.2575 9.16275 18.171 9.17521 18.088 9.16161C17.8787 9.12761 17.738 8.94059 17.7741 8.74337L18.296 5.8769L16.0868 3.8469C16.0266 3.79137 15.987 3.71883 15.9749 3.63949C15.9425 3.44113 16.0892 3.25752 16.2996 3.22805Z" fill="#FEAC0C"/>
<path d="M32.2699 3.22805L35.3234 2.80981L36.6884 0.201757C36.7257 0.13035 36.787 0.0725445 36.8628 0.0374078C37.0528 -0.0510007 37.2837 0.022673 37.3787 0.201757L38.7437 2.80981L41.7972 3.22805C41.8814 3.23938 41.9584 3.27678 42.0173 3.33346C42.0885 3.40247 42.1278 3.49531 42.1264 3.59159C42.1251 3.68786 42.0832 3.7797 42.0101 3.8469L39.8008 5.8769L40.3228 8.74337C40.335 8.81005 40.3272 8.87863 40.3002 8.94133C40.2731 9.00403 40.228 9.05834 40.1699 9.09811C40.1118 9.13788 40.0431 9.16151 39.9715 9.16632C39.8998 9.17113 39.8282 9.15694 39.7647 9.12534L37.0335 7.77201L34.3023 9.12534C34.2278 9.16275 34.1412 9.17521 34.0582 9.16161C33.8489 9.12761 33.7082 8.94059 33.7443 8.74337L34.2662 5.8769L32.057 3.8469C31.9969 3.79137 31.9572 3.71883 31.9451 3.63949C31.9127 3.44113 32.0594 3.25752 32.2699 3.22805Z" fill="#FEAC0C"/>
<path d="M48.2406 3.22805L51.2941 2.80981L52.6591 0.201757C52.6964 0.13035 52.7577 0.0725445 52.8335 0.0374078C53.0235 -0.0510007 53.2544 0.022673 53.3494 0.201757L54.7144 2.80981L57.7679 3.22805C57.8521 3.23938 57.9291 3.27678 57.988 3.33346C58.0592 3.40247 58.0985 3.49531 58.0971 3.59159C58.0958 3.68786 58.0539 3.7797 57.9808 3.8469L55.7715 5.8769L56.2935 8.74337C56.3057 8.81005 56.2979 8.87863 56.2709 8.94133C56.2439 9.00403 56.1987 9.05834 56.1406 9.09811C56.0825 9.13788 56.0138 9.16151 55.9422 9.16632C55.8706 9.17113 55.7989 9.15694 55.7354 9.12534L53.0042 7.77201L50.273 9.12534C50.1985 9.16275 50.1119 9.17521 50.0289 9.16161C49.8196 9.12761 49.6789 8.94059 49.715 8.74337L50.237 5.8769L48.0277 3.8469C47.9676 3.79137 47.9279 3.71883 47.9158 3.63949C47.8834 3.44113 48.0301 3.25752 48.2406 3.22805Z" fill="#FEAC0C"/>
<path d="M64.2108 3.22805L67.2643 2.80981L68.6293 0.201757C68.6666 0.13035 68.7279 0.0725445 68.8037 0.0374078C68.9937 -0.0510007 69.2246 0.022673 69.3196 0.201757L70.6846 2.80981L73.7381 3.22805C73.8223 3.23938 73.8993 3.27678 73.9582 3.33346C74.0294 3.40247 74.0687 3.49531 74.0673 3.59159C74.066 3.68786 74.0241 3.7797 73.951 3.8469L71.7417 5.8769L72.2637 8.74337C72.2759 8.81005 72.2681 8.87863 72.2411 8.94133C72.2141 9.00403 72.169 9.05834 72.1109 9.09811C72.0528 9.13788 71.984 9.16151 71.9124 9.16632C71.8408 9.17113 71.7691 9.15694 71.7057 9.12534L68.9744 7.77201L66.2432 9.12534C66.1687 9.16275 66.0821 9.17521 65.9991 9.16161C65.7898 9.12761 65.6491 8.94059 65.6852 8.74337L66.2072 5.8769L63.9979 3.8469C63.9378 3.79137 63.8981 3.71883 63.8861 3.63949C63.8536 3.44113 64.0003 3.25752 64.2108 3.22805Z" fill="#FEAC0C"/>
<path d="M208.628 18.0547H201.897V16.4043H217.193V18.0547H210.462V35.8703H208.628V18.0547Z" fill="#161F1E"/>
<path d="M220.223 16.4043H232.264V18.0547H222.058V24.9835H231.624V26.634H222.058V34.223H232.707V35.8734H220.22V16.4043H220.223Z" fill="#161F1E"/>
<path d="M242.748 16.4043H244.639L252.927 35.8703H250.867L248.727 30.6999H238.299L236.074 35.8703H234.155L242.748 16.4043ZM243.612 18.3848L239.022 29.0526H248.062L243.612 18.3848Z" fill="#161F1E"/>
<path d="M255.569 16.4043H258.321L265.495 32.736L272.669 16.4043H275.284V35.8703H273.449V18.7118H273.393L265.885 35.8672H265.08L257.46 18.7118H257.404V35.8672H255.569V16.4043Z" fill="#161F1E"/>
<path d="M4.92181 44.2565V46.7814H3.87366V44.2351L0.939453 39.4756H2.06799L4.43329 43.3272L6.80786 39.4756H7.85292L4.92181 44.2565Z" fill="#161F1E"/>
<path d="M9.6709 43.1282C9.6709 40.9884 11.3405 39.3896 13.61 39.3896C15.8578 39.3896 17.5274 40.9761 17.5274 43.1282C17.5274 45.2771 15.8578 46.8667 13.61 46.8667C11.3374 46.8667 9.6709 45.268 9.6709 43.1282ZM16.47 43.1282C16.47 41.5111 15.2456 40.3189 13.61 40.3189C11.9527 40.3189 10.7283 41.508 10.7283 43.1282C10.7283 44.7483 11.9527 45.9374 13.61 45.9374C15.2456 45.9374 16.47 44.7483 16.47 43.1282Z" fill="#161F1E"/>
<path d="M20.8267 43.6298V39.4756H21.8841V43.5901C21.8841 45.2072 22.6323 45.9377 23.9649 45.9377C25.2975 45.9377 26.055 45.2072 26.055 43.5901V39.4756H27.0785V43.6298C27.0785 45.7482 25.9066 46.867 23.9526 46.867C22.0109 46.867 20.8267 45.7482 20.8267 43.6298Z" fill="#161F1E"/>
<path d="M35.8717 46.7814L34.2763 44.5377C34.1278 44.5469 33.9702 44.5591 33.8125 44.5591H31.9852V46.7814H30.9277V39.4756H33.8094C35.7325 39.4756 36.892 40.4354 36.892 42.0219C36.892 43.1499 36.3014 43.963 35.2657 44.3298L37.0188 46.7845H35.8717V46.7814ZM35.8407 42.0219C35.8407 40.9765 35.1327 40.3835 33.7816 40.3835H31.9852V43.6726H33.7816C35.1327 43.6726 35.8407 43.0674 35.8407 42.0219Z" fill="#161F1E"/>
<path d="M51.6713 39.4756L48.431 46.7814H47.386L44.1333 39.4756H45.2742L47.9363 45.4792L50.617 39.4756H51.6713Z" fill="#161F1E"/>
<path d="M58.6837 44.9554H54.757L53.9438 46.7834H52.8555L56.204 39.4775H57.2491L60.6068 46.7834H59.4969L58.6837 44.9554ZM58.3127 44.1209L56.7172 40.5413L55.1218 44.1209H58.3127Z" fill="#161F1E"/>
<path d="M63.4819 39.4756H64.5394V45.8735H68.5403V46.7814H63.4819V39.4756Z" fill="#161F1E"/>
<path d="M71.4717 39.4756H72.5291V45.8735H76.53V46.7814H71.4717V39.4756Z" fill="#161F1E"/>
<path d="M84.8225 45.8735V46.7814H79.458V39.4756H84.674V40.3835H80.5123V42.6272H84.2195V43.5137H80.5123V45.8735H84.8225Z" fill="#161F1E"/>
<path d="M91.3464 44.2565V46.7814H90.3014V44.2351L87.3672 39.4756H88.4957L90.861 43.3272L93.2356 39.4756H94.2806L91.3464 44.2565Z" fill="#161F1E"/>
<path d="M112.433 39.4756L109.963 46.7814H108.853L106.837 40.9459L104.821 46.7814H103.693L101.222 39.4756H102.311L104.305 45.415L106.386 39.4756H107.356L109.394 45.4456L111.432 39.4756H112.433Z" fill="#161F1E"/>
<path d="M115.494 39.4756H116.552V46.7814H115.494V39.4756Z" fill="#161F1E"/>
<path d="M120.435 39.4756H123.549C125.923 39.4756 127.54 40.9582 127.54 43.1285C127.54 45.2989 125.926 46.7814 123.549 46.7814H120.435V39.4756ZM123.487 45.8735C125.314 45.8735 126.486 44.767 126.486 43.1285C126.486 41.49 125.314 40.3835 123.487 40.3835H121.492V45.8735H123.487Z" fill="#161F1E"/>
<path d="M136.284 45.8735V46.7814H130.92V39.4756H136.136V40.3835H131.974V42.6272H135.681V43.5137H131.974V45.8735H136.284Z" fill="#161F1E"/>
<path d="M149.582 46.7814L147.987 44.5377C147.838 44.5469 147.681 44.5591 147.523 44.5591H145.696V46.7814H144.638V39.4756H147.52C149.443 39.4756 150.602 40.4354 150.602 42.0219C150.602 43.1499 150.012 43.963 148.976 44.3298L150.729 46.7845H149.582V46.7814ZM149.548 42.0219C149.548 40.9765 148.84 40.3835 147.489 40.3835H145.696V43.6726H147.489C148.843 43.6726 149.548 43.0674 149.548 42.0219Z" fill="#161F1E"/>
<path d="M159.433 45.8735V46.7814H154.068V39.4756H159.284V40.3835H155.126V42.6272H158.833V43.5137H155.126V45.8735H159.433Z" fill="#161F1E"/>
<path d="M167.896 44.9554H163.969L163.156 46.7834H162.067L165.416 39.4775H166.461L169.819 46.7834H168.709L167.896 44.9554ZM167.525 44.1209L165.929 40.5413L164.334 44.1209H167.525Z" fill="#161F1E"/>
<path d="M172.697 39.4756H173.755V45.8735H177.756V46.7814H172.697V39.4756Z" fill="#161F1E"/>
<path d="M190.976 45.8735V46.7814H185.612V39.4756H190.828V40.3835H186.669V42.6272H190.376V43.5137H186.669V45.8735H190.976Z" fill="#161F1E"/>
<path d="M193.821 45.9464L194.211 45.1333C194.761 45.6224 195.698 45.9801 196.65 45.9801C197.927 45.9801 198.478 45.491 198.478 44.8521C198.478 43.0669 194.001 44.1949 194.001 41.4804C194.001 40.3524 194.888 39.3926 196.83 39.3926C197.695 39.3926 198.592 39.6218 199.204 40.0406L198.855 40.8751C198.212 40.4686 197.482 40.2791 196.827 40.2791C195.571 40.2791 195.03 40.8018 195.03 41.4376C195.03 43.2228 199.507 42.1071 199.507 44.7879C199.507 45.9037 198.598 46.8666 196.647 46.8666C195.522 46.8666 194.412 46.4906 193.821 45.9464Z" fill="#161F1E"/>
<path d="M204.454 40.3835H201.918V39.4756H208.031V40.3835H205.496V46.7814H204.451V40.3835H204.454Z" fill="#161F1E"/>
<path d="M214.904 44.9554H210.978L210.165 46.7834H209.076L212.425 39.4775H213.47L216.828 46.7834H215.718L214.904 44.9554ZM214.533 44.1209L212.938 40.5413L211.343 44.1209H214.533Z" fill="#161F1E"/>
<path d="M220.405 40.3835H217.87V39.4756H223.982V40.3835H221.447V46.7814H220.402V40.3835H220.405Z" fill="#161F1E"/>
<path d="M232.25 45.8735V46.7814H226.886V39.4756H232.102V40.3835H227.943V42.6272H231.65V43.5137H227.943V45.8735H232.25Z" fill="#161F1E"/>
<path d="M242.07 40.3835H239.535V39.4756H245.647V40.3835H243.112V46.7814H242.067V40.3835H242.07Z" fill="#161F1E"/>
<path d="M253.915 45.8735V46.7814H248.551V39.4756H253.767V40.3835H249.608V42.6272H253.315V43.5137H249.608V45.8735H253.915Z" fill="#161F1E"/>
<path d="M262.378 44.9554H258.451L257.638 46.7834H256.549L259.898 39.4775H260.943L264.301 46.7834H263.191L262.378 44.9554ZM262.01 44.1209L260.414 40.5413L258.819 44.1209H262.01Z" fill="#161F1E"/>
<path d="M274.031 46.7816L274.022 41.4565L271.35 45.892H270.865L268.193 41.4871V46.7785H267.179V39.4727H268.045L271.128 44.6081L274.167 39.4727H275.033L275.042 46.7785H274.031V46.7816Z" fill="#161F1E"/>
<path fill-rule="evenodd" clip-rule="evenodd" d="M319.975 24.159C325.65 24.0904 329.499 26.065 331.18 29.9815C331.606 30.9733 331.81 32.09 332.071 33.2447C332.311 34.3044 332.296 36.3149 332.071 37.3397C332.05 37.681 332.029 38.0222 332.008 38.3635C331.808 39.2081 331.682 40.0944 331.371 40.8589C329.96 44.3229 327.44 46.065 323.477 47.0013C322.226 47.2969 319.999 47.279 318.766 47.0013C317.596 46.738 316.622 46.7621 315.646 46.3615C312.876 45.224 310.956 43.1519 309.917 40.283C308.887 37.4421 309.151 32.7614 310.235 30.2375C311.381 27.568 313.542 25.6771 316.41 24.7348C317.223 24.4679 318.144 24.4162 319.02 24.2229C319.333 24.154 319.753 24.297 319.975 24.159ZM288.144 24.5429H295.656C296.646 26.3135 297.776 28.0743 298.839 29.7896C299.142 30.2779 299.724 31.7471 300.176 31.965V31.901C300.646 31.3863 300.883 30.6521 301.259 30.0455C301.987 28.8672 302.757 27.6397 303.487 26.4624C303.703 26.1141 304.298 24.6886 304.569 24.5429H312.145V24.6068C311.798 24.8914 311.634 25.3768 311.381 25.7586C310.709 26.7729 310.03 27.7966 309.344 28.8298C308.018 30.8325 306.672 32.8224 305.333 34.8443C304.873 35.5387 304.406 36.2426 303.932 36.9558C303.847 37.0856 303.608 37.2629 303.55 37.4037V46.7454H296.675V37.4037C296.43 37.2029 296.345 36.9069 296.166 36.6359C295.706 35.9416 295.239 35.2378 294.765 34.5244C293.314 32.3332 291.838 30.1479 290.372 27.934C289.852 27.1478 289.313 26.3712 288.781 25.5666C288.567 25.2439 288.232 24.9907 288.144 24.5429ZM333.536 24.5429H340.347V35.2922C340.347 37.5229 340.25 39.5472 341.175 40.7949C341.637 41.4181 343.379 42.2577 344.74 41.9466C345.9 41.6816 346.812 41.2811 347.35 40.411C348.039 39.2987 347.86 37.2138 347.86 35.4202V24.5429H354.672C354.945 25.3767 354.735 27.7052 354.735 28.7658V38.1715C354.609 38.3827 354.738 38.7686 354.672 39.0673C354.565 39.6431 354.459 40.219 354.353 40.7949C353.687 42.8574 352.633 44.473 351.043 45.5937C350.096 46.2607 348.897 46.6136 347.605 46.9374L346.141 47.0653C345.063 47.2979 343.194 47.2214 342.194 47.0013C341.174 46.7774 340.278 46.9054 339.392 46.6174C337.337 45.9483 335.782 44.6583 334.745 42.9703C333.559 41.0394 333.536 38.245 333.536 35.1003V24.5429ZM356.963 24.5429H367.149C370.183 24.5429 373.039 24.6099 374.789 25.8865C376.656 27.2484 377.632 30.7987 376.381 33.5646C375.58 35.3344 373.802 36.513 371.669 36.9558V37.0198C374.606 37.4455 376.068 41.6633 377.272 43.9941C377.72 44.8618 378.404 45.7569 378.672 46.7454H370.969C370.638 45.9895 370.176 45.2546 369.76 44.5699C368.96 43.2549 368.376 41.8268 367.595 40.5389C367.09 39.7054 366.818 38.6822 366.004 38.1715C365.45 37.8247 364.767 37.7766 363.839 37.7876V46.7454H356.963V24.5429ZM363.839 29.0857V33.5646C366.301 33.6076 368.994 33.786 369.823 32.157C369.93 31.9464 370.141 31.4901 370.078 31.1332C369.613 28.5 366.812 29.0445 363.839 29.0857ZM320.039 29.4057L318.957 29.6616C317.747 30.1735 316.892 31.2336 316.474 32.5409C315.73 34.8645 316.087 38.8119 317.174 40.347C317.534 40.8551 318.062 41.1986 318.638 41.4987C319.165 41.7725 320.203 42.2132 321.121 42.0106C322.628 41.6778 323.741 41.3346 324.432 40.219C324.819 39.5932 325.008 38.7136 325.196 37.9156C325.217 37.5103 325.238 37.1051 325.259 36.6999C325.387 36.0952 325.391 34.9369 325.259 34.3325C325.128 33.728 325.237 33.2586 325.068 32.7328C324.354 30.51 323.03 29.3751 320.039 29.4057Z" fill="#161F1E"/>
<path fill-rule="evenodd" clip-rule="evenodd" d="M424.687 19.0332H427.353V19.1042C426.994 19.504 426.871 20.0431 426.581 20.5232C425.851 21.7353 425.228 23.0407 424.477 24.2836C422.24 27.9841 420.257 31.9336 418.023 35.6358C417.047 37.2515 416.245 38.9479 415.287 40.5314C415.013 40.9832 414.84 41.8525 414.375 42.0923C414.141 41.1579 413.309 40.2398 412.831 39.4671C411.674 37.5955 410.746 35.6734 409.604 33.791C409.009 32.8092 408.076 31.7329 407.71 30.5982H408.201C408.656 30.8814 410.257 30.8336 410.867 30.953C411.878 33.0828 413.586 34.8162 414.655 36.9129C414.711 36.8404 414.68 36.8934 414.725 36.771C415.181 36.2898 415.352 35.5861 415.707 34.9972C416.536 33.6229 417.243 32.1458 418.093 30.7401C419.47 28.4617 420.628 26.0295 422.021 23.716C422.928 22.2106 423.915 20.6423 424.687 19.0332Z" fill="#D02030"/>
<path fill-rule="evenodd" clip-rule="evenodd" d="M413.024 24.1617C416.342 24.0922 418.328 24.8352 420.241 26.0755V26.2075C419.801 26.5704 419.199 27.8955 418.917 28.4512C418.064 28.0094 417.356 27.3349 416.335 26.9994C412.689 25.8015 409.008 27.9016 407.727 29.969C405.365 33.7796 406.268 40.7779 409.316 43.0354C410.077 43.6085 410.927 44.0542 411.832 44.3553C412.547 44.5836 413.746 44.7301 414.547 44.5532C415.426 44.3592 416.089 44.447 416.798 44.1573C419.351 43.1149 420.704 41.101 421.433 38.218C421.72 37.0846 421.779 34.7882 421.499 33.5986C421.406 33.2026 420.962 31.8019 421.036 31.6188C421.262 30.7483 422.256 29.4885 422.691 28.6492L422.824 28.7152C423.429 29.9192 424.005 31.1288 424.413 32.6087C424.812 34.0599 424.839 36.5266 424.479 38.02C424.342 38.5893 424.384 39.016 424.214 39.5379C423.15 42.812 421.39 44.9835 418.321 46.269C416.989 46.8273 414.434 47.5341 412.362 47.0609C411.287 46.8155 410.3 46.6023 409.382 46.203C406.524 44.9598 404.896 42.5335 403.886 39.4059C403.53 38.3038 403.102 36.4655 403.423 34.9844V34.0605C403.6 33.2583 403.637 32.3871 403.886 31.6188C404.334 30.2406 404.958 28.9775 405.74 27.9233C406.82 26.4689 408.519 25.3669 410.375 24.6896C410.989 24.4659 411.712 24.3763 412.362 24.2277C412.602 24.1729 412.865 24.2599 413.024 24.1617ZM380.38 24.8876H387.267V32.6087H394.749V24.8876H401.701V47.0609H394.749V38.086H387.267V47.0609H380.38V24.8876ZM426.201 24.8876H435.338C435.391 25.9446 435.848 27.0528 436.133 27.9892C436.782 30.1232 437.157 32.3157 437.788 34.3905C438.083 35.3606 438.239 36.3139 438.516 37.2281C438.624 37.5836 438.58 37.9667 438.781 38.218V38.152C439.218 37.4889 439.369 35.6753 439.642 34.7864C440.356 32.4593 440.81 29.9039 441.562 27.5933C441.801 26.8596 441.823 25.506 442.224 24.9536C442.556 24.7482 444.2 24.8876 444.741 24.8876H451.296V47.0609H445.601V31.7508C445.601 31.3863 445.687 30.7411 445.535 30.4969C445.403 31.8234 444.788 33.6065 444.41 34.8524C443.655 37.3356 443.269 39.9032 442.489 42.3095C442.126 43.4327 441.953 44.614 441.629 45.6751C441.496 46.1107 441.541 46.6643 441.297 46.995C441.019 47.1685 440.248 47.0609 439.841 47.0609H436.199C436.177 47.0392 436.155 47.0167 436.133 46.995C436.109 46.5079 435.923 46.073 435.802 45.6751C435.508 44.7083 435.351 43.7521 435.073 42.8375C434.266 40.1822 433.856 37.4307 433.021 34.8524C432.685 33.8144 432.54 32.7215 432.226 31.7508C432.085 31.3152 432.141 30.7645 431.895 30.431V47.0609H426.201V24.8876ZM453.812 24.8876H472.286V29.5731C471.457 29.8451 469.65 29.639 468.644 29.639H460.698V33.1366H471.425V37.6901H460.698V42.0455H472.617V47.0609H453.812V24.8876Z" fill="#0071BA"/>
<path fill-rule="evenodd" clip-rule="evenodd" d="M495.149 29.6344L488.178 30.0262C488.098 28.5065 487.129 27.4779 485.898 27.0873C483.961 26.4734 482.011 27.2317 482.054 29.1772C482.321 29.4489 482.436 29.8159 482.77 30.0262C484.003 30.8028 486.499 30.8955 488.048 31.3977C490.955 32.3402 493.487 33.1356 494.954 35.5122C495.418 36.2633 496.263 38.1102 495.931 39.5614C495.726 40.4587 495.586 41.266 495.28 41.9778C494.774 43.1541 494.084 44.265 493.13 44.9821C488.963 48.113 479.272 48.1208 476.255 43.9371C475.395 42.7446 475.001 41.9053 474.561 40.2145C474.496 39.9644 474.224 39.0938 474.365 38.9083C474.773 38.6575 475.441 38.8972 475.994 38.7777L481.337 38.3858C481.549 40.4627 482.532 41.891 484.334 42.3697C486.498 42.9451 489.411 41.6114 488.699 39.4308C488.056 37.4624 485.384 37.4304 483.357 36.8184C480.115 35.8401 476.983 34.897 475.734 31.9202C475.388 31.0967 474.972 29.7036 475.278 28.4588L475.669 27.0873C476.669 24.7728 478.666 23.5632 481.272 22.8422C482.058 22.6247 482.802 22.7678 483.682 22.581C484.495 22.4086 486.064 22.402 486.875 22.581C487.905 22.8083 488.781 22.6809 489.677 22.9729C492.81 23.9936 494.72 25.9137 495.149 29.6344ZM507.594 22.5157C513.087 22.4517 516.735 23.5685 518.996 26.6955C519.444 27.3159 519.975 27.969 520.299 28.7201C520.712 29.6801 520.948 30.7636 521.211 31.8549C521.422 32.7314 521.538 34.6005 521.341 35.5122V36.5572C521.124 37.5512 521.118 38.5746 520.82 39.4961C519.569 43.3611 517.014 45.705 513.001 46.8107C512.126 47.0524 511.156 47.136 510.135 47.1373C502.837 47.1458 499.135 44.873 497.365 39.3655C496.474 36.5957 496.499 32.1103 497.56 29.5038C498.74 26.6054 500.73 24.5468 503.619 23.3647C504.475 23.0146 505.474 22.8671 506.421 22.6463C506.805 22.5568 507.302 22.6972 507.594 22.5157ZM522.579 22.9075H529.941V40.8676H541.408V46.7454H522.579V22.9075ZM542.907 22.9075H551.833C554.615 22.9075 557.143 22.9226 559.065 23.7566C561.351 24.7486 562.936 26.7072 563.886 29.0466C564.21 29.8434 564.25 30.6082 564.473 31.5284C564.821 32.9639 565.022 35.3222 564.668 36.949C564.647 37.3409 564.625 37.7327 564.603 38.1246C564.281 39.5091 564.011 40.8493 563.365 41.9125C562.334 43.6086 560.865 45.1075 558.935 45.8964C556.721 46.8009 553.783 46.7454 550.66 46.7454H542.907V22.9075ZM508.115 28.1323C507.746 28.2413 507.377 28.3502 507.007 28.4588C505.952 28.9747 505.119 29.8563 504.662 30.9406C504.361 31.6603 504.318 32.5296 504.141 33.357V34.6632C503.995 35.3744 504.165 36.6754 504.336 37.3409C504.535 38.1141 504.563 38.7679 504.922 39.3655C505.703 40.6625 507.702 42.1516 510.07 41.586C511.06 41.3496 512.15 40.9231 512.676 40.2145C514.075 38.331 514.582 33.5438 513.458 30.8753C512.621 28.8899 511.019 28.1042 508.115 28.1323ZM550.269 28.3282V41.3247C552.576 41.3476 555.22 41.4671 556.198 40.1492C557.869 37.898 557.809 31.8255 556.133 29.6344C555.11 28.2969 552.655 28.3073 550.269 28.3282Z" fill="#B11F29"/>
<path fill-rule="evenodd" clip-rule="evenodd" d="M394.899 21.351H401.551L432.814 2.44647L442.902 13.4556L440.796 13.9004L434.255 20.0166H446.561L454.986 12.4548L461.97 21.2398H464.077L454.875 9.89709L444.233 12.3436L433.036 0L413.191 8.67385L412.859 2.78008L409.422 2.66888L407.316 4.00332L407.538 11.0091L404.766 12.2324L394.899 21.351Z" fill="#54585A"/>
</svg>
