<svg width="17" height="21" viewBox="0 0 17 21" fill="none" xmlns="http://www.w3.org/2000/svg">
<path d="M10.5 8.63672C10.5 10.0174 9.38071 11.1367 8 11.1367C6.61929 11.1367 5.5 10.0174 5.5 8.63672C5.5 7.25601 6.61929 6.13672 8 6.13672C9.38071 6.13672 10.5 7.25601 10.5 8.63672Z" stroke="#DB323F"/>
<path d="M8.07109 1.13672H8.07114C10.0675 1.13662 11.9823 1.91754 13.3997 3.30839C14.8163 4.69849 15.6216 6.58545 15.6422 8.5592C15.6411 11.1137 13.9779 13.8897 12.1779 16.1202C11.2884 17.2224 10.3868 18.1658 9.68542 18.8497C9.33502 19.1914 9.03561 19.4674 8.81408 19.6649C8.70327 19.7638 8.61249 19.8425 8.54502 19.8997C8.51124 19.9284 8.48394 19.9511 8.46331 19.9679L8.43879 19.9876C8.43256 19.9925 8.43006 19.9944 8.43037 19.9941L8.41663 20.0043L8.40355 20.0153C8.31151 20.0934 8.19364 20.1368 8.07111 20.1368C7.94894 20.1368 7.8314 20.0936 7.73948 20.016C7.73947 20.016 7.73946 20.016 7.73946 20.016C7.73943 20.016 7.7394 20.0159 7.73937 20.0159C7.58401 19.8825 5.75752 18.3136 3.97337 16.108C2.1698 13.8784 0.501096 11.1081 0.500001 8.55923C0.520587 6.58547 1.32589 4.6985 2.74252 3.30839C4.1599 1.91754 6.07474 1.13662 8.07109 1.13672Z" stroke="#DB323F"/>
</svg>
